<?xml version="1.0" standalone="no"?>
<!DOCTYPE svg PUBLIC "-//W3C//DTD SVG 1.1//EN" "http://www.w3.org/Graphics/SVG/1.1/DTD/svg11.dtd" >
<svg>
<metadata>
Created by FontForge 20090914 at Fri Apr  2 09:15:27 2021
 By www-data
Copyright (c) Font Awesome
</metadata>
<defs>
<font id="FontAwesome5Free-Solid" horiz-adv-x="512" >
  <font-face 
    font-family="Font Awesome 5 Free Solid"
    font-weight="900"
    font-stretch="normal"
    units-per-em="512"
    panose-1="2 0 5 3 0 0 0 0 0 0"
    ascent="448"
    descent="-64"
    bbox="-1.26074 -65.143 641 449.258"
    underline-thickness="25"
    underline-position="-25"
    unicode-range="U+E005-U+F8FF"
  />
<missing-glyph 
 />
    <glyph glyph-name=".notdef" 
 />
    <glyph glyph-name="faucet" unicode="&#xe005;" 
d="M352 192c44 0 81.665 -15.667 112.998 -47s47 -69 47 -113c0 -8.66699 -3.16699 -16.167 -9.5 -22.5s-13.833 -9.5 -22.5 -9.5h-64c-8.66699 0 -16.167 3.16699 -22.5 9.5s-9.5 13.833 -9.5 22.5s-3.16699 16.167 -9.5 22.5s-13.833 9.5 -22.5 9.5h-13
c-10.667 -19.333 -26.167 -34.833 -46.5 -46.5s-43.166 -17.5 -68.499 -17.5s-48.166 5.83301 -68.499 17.5s-35.833 27.167 -46.5 46.5h-93c-4.66699 0 -8.5 1.5 -11.5 4.5s-4.5 6.83301 -4.5 11.5v96c0 4.66699 1.5 8.5 4.5 11.5s6.83301 4.5 11.5 4.5h119
c15.333 13.333 34.333 22.666 57 27.999v48l32 3l32 -3v-48c22 -5.33301 41 -14.666 57 -27.999h39zM81.998 288c-4.66699 -0.666992 -8.83398 0.666016 -12.501 3.99902s-5.5 7.66602 -5.5 12.999v30c0 5.33301 1.83301 9.66602 5.5 12.999s7.83398 4.66602 12.501 3.99902
l110 -12v28c0 4.66699 1.5 8.5 4.5 11.5s6.83301 4.5 11.5 4.5h32c4.66699 0 8.5 -1.5 11.5 -4.5s4.5 -6.83301 4.5 -11.5v-28l110 12c4.66699 0.666992 8.83398 -0.666016 12.501 -3.99902s5.5 -7.66602 5.5 -12.999v-30c0 -5.33301 -1.83301 -9.66602 -5.5 -12.999
s-7.83398 -4.66602 -12.501 -3.99902l-142 15z" />
    <glyph glyph-name="trailer" unicode="&#xe041;" horiz-adv-x="640" 
d="M624 128c4.66699 0 8.5 -1.5 11.5 -4.5s4.5 -6.83301 4.5 -11.5v-32c0 -4.66699 -1.5 -8.5 -4.5 -11.5s-6.83301 -4.5 -11.5 -4.5h-338c-4 27.333 -16.333 50.166 -37 68.499s-45 27.5 -73 27.5s-52.333 -9.16699 -73 -27.5s-33 -41.166 -37 -68.499h-50
c-4.66699 0 -8.5 1.5 -11.5 4.5s-4.5 6.83301 -4.5 11.5v288c0 4.66699 1.5 8.5 4.5 11.5s6.83301 4.5 11.5 4.5h512c4.66699 0 8.5 -1.5 11.5 -4.5s4.5 -6.83301 4.5 -11.5v-240h80zM96 204v108c0 5.33301 -2.66699 8 -8 8h-16c-5.33301 0 -8 -2.66699 -8 -8v-128
c10 8 20.667 14.667 32 20zM192 223v89c0 5.33301 -2.66699 8 -8 8h-16c-5.33301 0 -8 -2.66699 -8 -8v-89c8 0.666992 13.333 1 16 1s8 -0.333008 16 -1zM288 184v128c0 5.33301 -2.66699 8 -8 8h-16c-5.33301 0 -8 -2.66699 -8 -8v-108c11.333 -5.33301 22 -12 32 -20z
M384 128v184c0 5.33301 -2.66699 8 -8 8h-16c-5.33301 0 -8 -2.66699 -8 -8v-184h32zM480 128v184c0 5.33301 -2.66699 8 -8 8h-16c-5.33301 0 -8 -2.66699 -8 -8v-184h32zM176 128c22 0 40.833 -7.83301 56.5 -23.5s23.5 -34.5 23.5 -56.5s-7.83301 -40.833 -23.5 -56.5
s-34.5 -23.5 -56.5 -23.5s-40.833 7.83301 -56.5 23.5s-23.5 34.5 -23.5 56.5s7.83301 40.833 23.5 56.5s34.5 23.5 56.5 23.5zM176 16c8.66699 0 16.167 3.16699 22.5 9.5s9.5 13.833 9.5 22.5s-3.16699 16.167 -9.5 22.5s-13.833 9.5 -22.5 9.5
s-16.167 -3.16699 -22.5 -9.5s-9.5 -13.833 -9.5 -22.5s3.16699 -16.167 9.5 -22.5s13.833 -9.5 22.5 -9.5z" />
    <glyph glyph-name="bacteria" unicode="&#xe059;" horiz-adv-x="640" 
d="M272 222c-2 -1.33301 -4.33984 -2.00586 -7.00684 -2.00586v0c-7.33301 0 -12.666 3.66699 -15.999 11l-4 9c0 -0.666992 -0.5 -1.16699 -1.5 -1.5s-1.83301 -0.833008 -2.5 -1.5c-3.33301 -2 -6.66602 -4.33301 -9.99902 -7c-4 -4 -7.66699 -8 -11 -12
c-2.66699 -2.66699 -5.33398 -5.66699 -8.00098 -9c0 -0.666992 -0.333008 -1.33398 -1 -2.00098l-1 -1l9 -4c6.66699 -3.33301 10 -8.66602 10 -15.999c0 -5.33301 -1.66699 -9.66602 -5 -12.999s-7.66602 -5 -12.999 -5c-2.66699 0 -5 0.666992 -7 2l-9 4
c-2 -5.33301 -3.33301 -10.666 -4 -15.999c-2 -11.333 -6 -21.666 -12 -30.999l9 -9c3.33301 -3.33301 5 -7.5 5 -12.5s-1.83301 -9.16699 -5.5 -12.5s-7.83398 -5 -12.501 -5s-9 1.66699 -13 5l-8 9c-14 -9.33301 -29.333 -14 -46 -14h-1h-2l-3 -11
c-2 -8.66699 -7.66699 -13 -17 -13c-4.66699 0 -8.83398 1.83301 -12.501 5.5s-5.5 7.83398 -5.5 12.501c0 1.33301 0.333008 2.66602 1 3.99902l3 11c-16 8 -28.333 20 -37 36l-11 -4h-5c-5.33301 0 -9.66602 1.66699 -12.999 5s-5 7.33301 -5 12
c0 9.33301 4.33301 15 13 17l11 4v6c0 4 0.333008 8.33301 1 13c1.33301 5.33301 4 15.333 8 30l-11 4c-8 2.66699 -12 8 -12 16c0 5.33301 1.83301 9.66602 5.5 12.999s7.83398 5 12.501 5c2 0 4 -0.333008 6 -1l10 -4c6.66699 15.333 14.334 30 23.001 44l-8 7
c-5.33301 3.33301 -8 8 -8 14c0 4 1.33301 7.66699 4 11c3.33301 4.66699 8 7 14 7c4 0 7.66699 -1.33301 11 -4l8 -6c10.667 12.667 22.334 24.334 35.001 35.001l-6 9c-2.66699 3.33301 -4 7 -4 11c0 6 2.33301 10.667 7 14c3.33301 2 7 3 11 3c6 0 10.667 -2.33301 14 -7
l7 -8c14 9.33301 28.667 17 44 23l-4 10c-0.666992 2 -1 4 -1 6c0 4.66699 1.83301 8.83398 5.5 12.501s7.83398 5.5 12.501 5.5c8.66699 0 14.334 -4 17.001 -12l3 -9c14.667 4 25.667 6.66699 33 8c4.66699 0.666992 9.33398 1 14.001 1h3l3 11
c2 8.66699 7.66699 13 17 13c4.66699 0 8.83398 -1.66699 12.501 -5s5.5 -7.66602 5.5 -12.999c0 -1.33301 -0.333008 -2.66602 -1 -3.99902l-3 -11c16 -8 28.333 -20 37 -36l11 4h5c5.33301 0 9.66602 -1.66699 12.999 -5s5 -7.33301 5 -12
c0 -8.66699 -4.33301 -14.334 -13 -17.001l-12 -4c0.666992 -1.33301 1 -3 1 -5c0 -15.333 -4 -29.666 -12 -42.999l9 -9c4 -3.33301 6 -7.66602 6 -12.999c0 -4.66699 -1.66699 -8.83398 -5 -12.501s-7.33301 -5.5 -12 -5.5s-8.66699 1.66699 -12 5l-10 9
c-10.667 -7.33301 -22 -12 -34 -14c-4 -0.666992 -8.33301 -1.66699 -13 -3l4 -9c1.33301 -2 2 -4.33301 2 -7c0 -8 -3.66699 -13.333 -11 -16zM127.993 191.994c8.66699 0 16.167 3.16699 22.5 9.5s9.5 13.833 9.5 22.5s-3.16699 16.167 -9.5 22.5s-13.833 9.5 -22.5 9.5
s-16.167 -3.16699 -22.5 -9.5s-9.5 -13.833 -9.5 -22.5s3.16699 -16.167 9.5 -22.5s13.833 -9.5 22.5 -9.5zM207.993 287.994c4.66699 0 8.5 1.5 11.5 4.5s4.5 6.83301 4.5 11.5s-1.5 8.5 -4.5 11.5s-6.83301 4.5 -11.5 4.5s-8.5 -1.5 -11.5 -4.5s-4.5 -6.83301 -4.5 -11.5
s1.5 -8.5 4.5 -11.5s6.83301 -4.5 11.5 -4.5zM638.993 242.994c0.666992 -2 1.00195 -3.66504 1.00195 -4.99805c0 -9.33301 -4.33301 -15 -13 -17l-11 -4v-6c0 -4 -0.333008 -8.33301 -1 -13c-1.33301 -5.33301 -4 -15.333 -8 -30l11 -4c8 -2.66699 12 -8 12 -16
c0 -5.33301 -1.83301 -9.66602 -5.5 -12.999s-7.83398 -5 -12.501 -5c-2 0 -4 0.333008 -6 1l-10 4c-6.66699 -15.333 -14.334 -30 -23.001 -44l8 -7c5.33301 -3.33301 8 -8 8 -14c0 -5.33301 -1.66699 -9.66602 -5 -12.999s-7.66602 -5 -12.999 -5
c-4 0 -7.66699 1.33301 -11 4l-8 6c-10.667 -12.667 -22.334 -24.334 -35.001 -35.001l6 -9c2.66699 -3.33301 4 -7 4 -11c0 -6 -2.33301 -10.667 -7 -14c-3.33301 -2 -7 -3 -11 -3c-6 0 -10.667 2.33301 -14 7l-7 8c-14 -9.33301 -28.667 -17 -44 -23l4 -10
c0.666992 -2 1 -4 1 -6c0 -5.33301 -1.83301 -9.66602 -5.5 -12.999s-7.83398 -5 -12.501 -5c-8.66699 0 -14.334 4 -17.001 12l-3 9c-14.667 -4 -25.667 -6.66699 -33 -8c-4.66699 -0.666992 -9.33398 -1 -14.001 -1h-3l-3 -11c-2 -8.66699 -7.66699 -13 -17 -13
c-4.66699 0 -8.83398 1.66699 -12.501 5s-5.5 7.66602 -5.5 12.999c0 1.33301 0.333008 2.66602 1 3.99902l3 11c-16 8 -28.333 20 -37 36l-11 -4c-2 -0.666992 -3.66699 -1 -5 -1c-5.33301 0 -9.66602 1.83301 -12.999 5.5s-5 7.83398 -5 12.501
c0 8.66699 4.33301 14.334 13 17.001l12 4c-0.666992 1.33301 -1 3 -1 5c0 15.333 4 29.666 12 42.999l-10 9c-4 3.33301 -6 7.66602 -6 12.999c0 4.66699 1.83301 8.83398 5.5 12.501s7.83398 5.5 12.501 5.5s8.66699 -1.66699 12 -5l10 -9c10.667 7.33301 22 12 34 14
c4 0.666992 8.33301 1.66699 13 3l-4 9c-1.33301 2 -2 4.33301 -2 7c0 8 3.66699 13.333 11 16c2 1.33301 4.33301 2 7 2c7.33301 0 12.666 -3.66699 15.999 -11l4 -9c0 0.666992 0.5 1.16699 1.5 1.5s1.83301 0.833008 2.5 1.5c3.33301 2 6.66602 4.33301 9.99902 7
c4 4 7.66699 8 11 12c2.66699 2.66699 5.33398 5.66699 8.00098 9c0 0.666992 0.333008 1.33398 1 2.00098l1 1l-9 4c-6.66699 3.33301 -10 8.66602 -10 15.999c0 5.33301 1.66699 9.66602 5 12.999s7.66602 5 12.999 5c2.66699 0 5 -0.666992 7 -2l9 -4
c2 5.33301 3.33301 10.666 4 15.999c2 11.333 6 21.666 12 30.999l-9 9c-3.33301 3.33301 -5 7.5 -5 12.5s1.83301 9.16699 5.5 12.5s7.83398 5 12.501 5s9 -1.66699 13 -5l8 -9c14 9.33301 29.333 14 46 14h1h2l3 11c2.66699 8.66699 8.33398 13 17.001 13
c4.66699 0 8.83398 -1.83301 12.501 -5.5s5.5 -7.83398 5.5 -12.501c0 -1.33301 -0.333008 -2.66602 -1 -3.99902l-3 -11c16 -8 28.333 -20 37 -36l11 4h5v0c8.66699 0 14.334 -4 17.001 -12zM415.995 31.9961c8.66699 0 16.167 3.16699 22.5 9.5s9.5 13.833 9.5 22.5
s-3.16699 16.167 -9.5 22.5s-13.833 9.5 -22.5 9.5s-16.167 -3.16699 -22.5 -9.5s-9.5 -13.833 -9.5 -22.5s3.16699 -16.167 9.5 -22.5s13.833 -9.5 22.5 -9.5z" />
    <glyph glyph-name="bacterium" unicode="&#xe05a;" 
d="M511 345c0.666992 -2 0.999023 -4.33398 0.999023 -7.00098c0 -11.333 -5.66699 -18.666 -17 -21.999l-16 -5v-7c0 -20.667 -5 -39.667 -15 -57l13 -12c5.33301 -4.66699 8 -10.667 8 -18c0 -6.66699 -2.33301 -12.334 -7 -17.001s-10.167 -7 -16.5 -7
s-11.833 2.33301 -16.5 7l-14 12c-13.333 -9.33301 -28.333 -15.333 -45 -18c-5.33301 -1.33301 -10.666 -3 -15.999 -5l5 -12c1.33301 -2.66699 2 -5.66699 2 -9c0 -6.66699 -2.33301 -12.334 -7 -17.001s-10.334 -7 -17.001 -7c-10 0 -17 4.66699 -21 14l-5 12
c-0.666992 0 -1.5 -0.333008 -2.5 -1s-1.83301 -1.33398 -2.5 -2.00098c-4.66699 -3.33301 -9 -6.66602 -13 -9.99902c-6 -4.66699 -11.333 -10 -16 -16c-3.33301 -3.33301 -6.66602 -7.33301 -9.99902 -12l-2 -2c-0.666992 -0.666992 -1 -1.33398 -1 -2.00098l12 -6
c9.33301 -4 14 -11 14 -21c0 -6.66699 -2.33301 -12.334 -7 -17.001s-10.334 -7 -17.001 -7c-3.33301 0 -6.66602 1 -9.99902 3l-12 5c-2.66699 -6.66699 -4.66699 -13.334 -6 -20.001c-2 -15.333 -7.33301 -29.333 -16 -42l13 -12c4 -4.66699 6 -10 6 -16
c0 -6.66699 -2.33301 -12.334 -7 -17.001s-10.334 -7 -17.001 -7s-12.334 2.33301 -17.001 7l-11 11c-18.667 -12 -39 -18 -61 -18h-2h-2l-4 -14c-2.66699 -12 -10.334 -18 -23.001 -18c-2 0 -4 0.333008 -6 1c-12 2.66699 -18 10.334 -18 23.001c0 2 0.333008 4 1 6l4 14
c-21.333 10.667 -37.333 26.667 -48 48l-15 -5c-2.66699 -0.666992 -5 -1 -7 -1c-6.66699 0 -12.334 2.33301 -17.001 7s-7 10.334 -7 17.001c0 11.333 5.66699 18.666 17 21.999l15 5v8c0 6 0.333008 11.667 1 17c2.66699 14 6 27.667 10 41l-13 4
c-11.333 4 -17 11.667 -17 23c0 6.66699 2.33301 12.334 7 17.001s10.334 7 17.001 7c2.66699 0 5.33398 -0.666992 8.00098 -2l13 -4c8.66699 20 19 39.333 31 58l-11 8c-6.66699 4.66699 -10 11.334 -10 20.001c0 6.66699 2.33301 12.334 7 17.001s10 7 16 7
s11 -1.66699 15 -5l11 -8c14 16.667 29.667 32.334 47 47.001l-8 11c-3.33301 4 -5 8.66699 -5 14c0 8 3.33301 14.333 10 19c4 2.66699 8.66699 4 14 4c8 0 14.333 -3 19 -9l8 -11c18.667 12.667 38 23.334 58 32.001l-4 12c-0.666992 2.66699 -1 5.33398 -1 8.00098
c0 6.66699 2.33301 12.334 7 17.001s10.334 7 17.001 7c10.667 0 18 -5.33301 22 -16l4 -12c14.667 4.66699 29.667 8 45 10c6 1.33301 12 2 18 2h4l4 14c2.66699 12 10.334 18 23.001 18c6 0 11.333 -2.33301 16 -7s7 -10.334 7 -17.001v-6l-4 -14
c21.333 -10.667 37.333 -26.334 48 -47.001l15 4c2.66699 0.666992 5 1 7 1c12 0 19.667 -5.66699 23 -17zM159.999 79.999c13.333 0 24.666 4.66699 33.999 14s14 20.666 14 33.999s-4.66699 24.666 -14 33.999s-20.666 14 -33.999 14s-24.666 -4.66699 -33.999 -14
s-14 -20.666 -14 -33.999s4.66699 -24.666 14 -33.999s20.666 -14 33.999 -14zM239.999 215.999c6.66699 0 12.334 2.33301 17.001 7s7 10.334 7 17.001s-2.33301 12.334 -7 17.001s-10.334 7 -17.001 7s-12.334 -2.33301 -17.001 -7s-7 -10.334 -7 -17.001
s2.33301 -12.334 7 -17.001s10.334 -7 17.001 -7z" />
    <glyph glyph-name="box-tissue" unicode="&#xe05b;" 
d="M384 160h-255.999l-64 288h141c15.333 0 29.166 -4.5 41.499 -13.5s20.833 -20.5 25.5 -34.5s13.167 -25.5 25.5 -34.5s25.833 -13.5 40.5 -13.5h110zM0.000976562 -32v64h512v-64c0 -8.66699 -3.16699 -16.167 -9.5 -22.5s-13.833 -9.5 -22.5 -9.5h-448
c-8.66699 0 -16.167 3.16699 -22.5 9.5s-9.5 13.833 -9.5 22.5zM480.001 224c8.66699 0 16.167 -3.16699 22.5 -9.5s9.5 -13.833 9.5 -22.5v-128h-512v128c0 8.66699 3.16699 16.167 9.5 22.5s13.833 9.5 22.5 9.5h49l14 -64h-15c-4.66699 0 -8.5 -1.5 -11.5 -4.5
s-4.5 -6.66699 -4.5 -11s1.5 -8.16602 4.5 -11.499s6.83301 -5 11.5 -5h352c4.66699 0 8.5 1.66699 11.5 5s4.5 7.16602 4.5 11.499s-1.5 8 -4.5 11s-6.83301 4.5 -11.5 4.5h-14l21 64h41z" />
    <glyph glyph-name="hand-holding-medical" unicode="&#xe05c;" horiz-adv-x="576" 
d="M160 272c-4.66699 0 -8.5 1.66699 -11.5 5s-4.5 7 -4.5 11v64c0 4.66699 1.5 8.5 4.5 11.5s6.83301 4.5 11.5 4.5h64v64c0 4.66699 1.5 8.5 4.5 11.5s6.83301 4.5 11.5 4.5h64c4.66699 0 8.5 -1.5 11.5 -4.5s4.5 -6.83301 4.5 -11.5v-64h64c4.66699 0 8.5 -1.5 11.5 -4.5
s4.5 -6.83301 4.5 -11.5v-64c0 -4 -1.5 -7.66699 -4.5 -11s-6.83301 -5 -11.5 -5h-64v-64c0 -4 -1.5 -7.66699 -4.5 -11s-6.83301 -5 -11.5 -5h-64c-4.66699 0 -8.5 1.66699 -11.5 5s-4.5 7 -4.5 11v64h-64zM568 112c5.33301 -7.33301 8.00195 -15.334 8.00195 -24.001
c0 -13.333 -5.33301 -24 -16 -32l-135 -100c-18.667 -13.333 -39.334 -20 -62.001 -20h-347c-4.66699 0 -8.5 1.66699 -11.5 5s-4.5 7 -4.5 11v96c0 4.66699 1.5 8.5 4.5 11.5s6.83301 4.5 11.5 4.5h55l47 38c21.333 17.333 46 26 74 26h160
c8.66699 0 16.167 -3.16699 22.5 -9.5s9.5 -13.833 9.5 -22.5c0 -2 -0.333008 -3.66699 -1 -5c-0.666992 -8 -4.33398 -14.5 -11.001 -19.5s-14 -7.5 -22 -7.5h-78c-4.66699 0 -8.5 -1.5 -11.5 -4.5s-4.5 -6.66699 -4.5 -11s1.5 -8.16602 4.5 -11.499s6.83301 -5 11.5 -5
h120l120 88c7.33301 5.33301 15.333 8 24 8c13.333 0 24 -5.33301 32 -16z" />
    <glyph glyph-name="hand-sparkles" unicode="&#xe05d;" horiz-adv-x="640" 
d="M107 277l-21 -49c-1.33301 -2.66699 -3.33301 -4 -6 -4s-4.66699 1.33301 -6 4l-21 49l-49 21c-2.66699 1.33301 -4 3.33301 -4 6s1.33301 4.66699 4 6l49 21l21 49c1.33301 2.66699 3.33301 4 6 4s4.66699 -1.33301 6 -4l21 -49l49 -21
c2.66699 -1.33301 4 -3.33301 4 -6s-1.33301 -4.66699 -4 -6zM471 -19l38 -16c-8.66699 -19.333 -23 -29 -43 -29h-198c-16 0 -29 6.66699 -39 20l-125 172c-5.33301 7.33301 -8 15.333 -8 24c0 11.333 3.83301 20.833 11.5 28.5s17.167 11.5 28.5 11.5
c13.333 0 24 -5.66699 32 -17l24 -32v241c0 8.66699 3.16699 16.167 9.5 22.5s13.833 9.5 22.5 9.5s16.167 -3.16699 22.5 -9.5s9.5 -13.833 9.5 -22.5v-152c0 -5.33301 2.66699 -8 8 -8h16c5.33301 0 8 2.66699 8 8v184c0 8.66699 3.16699 16.167 9.5 22.5
s13.833 9.5 22.5 9.5s16.167 -3.16699 22.5 -9.5s9.5 -13.833 9.5 -22.5v-184c0 -5.33301 2.66699 -8 8 -8h16c5.33301 0 8 2.66699 8 8v152c0 8.66699 3.16699 16.167 9.5 22.5s13.833 9.5 22.5 9.5s16.167 -3.16699 22.5 -9.5s9.5 -13.833 9.5 -22.5v-152
c0 -5.33301 2.66699 -8 8 -8h16c5.33301 0 8 2.66699 8 8v72c0 8.66699 3.16699 16.167 9.5 22.5s13.833 9.5 22.5 9.5s16.167 -3.16699 22.5 -9.5s9.5 -13.833 9.5 -22.5v-176v-2v-2c-8.66699 -4 -15 -9.66699 -19 -17v-1l-1 -1l-15 -38l-38 -15l-1 -1h-1
c-14 -7.33301 -21 -19 -21 -35s7 -27.333 21 -34l1 -1h1zM350 108c1.33301 1.33301 2 2.83301 2 4.5s-0.666992 2.83398 -2 3.50098l-30 12l-12 30c-1.33301 1.33301 -2.66602 2 -3.99902 2s-2.66602 -0.666992 -3.99902 -2l-12 -30l-30 -12
c-1.33301 -0.666992 -2 -1.83398 -2 -3.50098s0.666992 -3.16699 2 -4.5l30 -12l12 -30c1.33301 -1.33301 2.66602 -2 3.99902 -2s2.66602 0.666992 3.99902 2l12 30zM640 16c0 -2.66699 -1.33301 -4.66699 -4 -6l-49 -21v0l-21 -49c-1.33301 -2.66699 -3.33301 -4 -6 -4
s-4.66699 1.33301 -6 4l-21 49l-49 21c-2.66699 1.33301 -4 3.33301 -4 6s1.33301 4.66699 4 6l49 21l21 49c1.33301 2.66699 3.33301 4 6 4s4.66699 -1.33301 6 -4l21 -49l49 -21c2.66699 -1.33301 4 -3.33301 4 -6z" />
    <glyph glyph-name="hands-wash" unicode="&#xe05e;" horiz-adv-x="576" 
d="M496 224c-13.333 0 -24.666 4.66699 -33.999 14s-14 20.666 -14 33.999s4.66699 24.666 14 33.999s20.666 14 33.999 14s24.666 -4.66699 33.999 -14s14 -20.666 14 -33.999s-4.66699 -24.666 -14 -33.999s-20.666 -14 -33.999 -14zM311 270l-16 -4.99805l21 66
c2 5.33301 5.33301 9.66602 10 12.999s10 4.66602 16 3.99902s11 -3.16699 15 -7.5s6 -9.83301 6 -16.5c0 -2 -0.333008 -4.33301 -1 -7l-15 -48c-6 2 -12.333 3 -19 3c-5.33301 0 -11 -0.666992 -17 -2zM94 62.002c-18.667 10.667 -33.668 25.3418 -45.001 44.0088
s-17 39 -17 61v113c0 6.66699 2.5 12.167 7.5 16.5s10.833 6.5 17.5 6.5s12.334 -2.33301 17.001 -7s7 -10.334 7 -17.001l2 -50l60 190c1.33301 6 4.5 10.667 9.5 14s10.5 4.66602 16.5 3.99902s11 -3.33398 15 -8.00098s6 -10 6 -16
c0 -2.66699 -0.333008 -5.33398 -1 -8.00098l-39 -122v-2c0 -5.33301 2.66699 -8 8 -8c4 0 6.66699 2 8 6l47 151c2 6 5.5 10.667 10.5 14s10.167 4.66602 15.5 3.99902c6 -0.666992 11.167 -3.33398 15.5 -8.00098s6.5 -10 6.5 -16c0 -2.66699 -0.333008 -5 -1 -7l-44 -138
v-2c0 -5.33301 2.66699 -8 8 -8c4 0 6.33301 1.66699 7 5l34 107c2 5.33301 5.33301 9.66602 10 12.999s10 4.66602 16 3.99902s11 -3.33398 15 -8.00098s6 -10 6 -16c0 -2.66699 -0.333008 -5 -1 -7l-34 -108l-74 -23c-31.333 -10.667 -57 -29.5 -77 -56.5
s-30 -57.5 -30 -91.5v-26h-1h-1zM518.999 112.01c6 0 11.3359 -1.82715 16.0029 -5.49414s7.66699 -8.16699 9 -13.5v-5c0 -6.66699 -2.33301 -12.334 -7 -17.001s-10.334 -7 -17.001 -7h-160c-5.33301 0 -8 -2.66699 -8 -8s2.66699 -8 8 -8h127
c6 0 11.333 -1.83301 16 -5.5s7.66699 -8.16699 9 -13.5v-5c0 -6.66699 -2.33301 -12.334 -7 -17.001s-10.334 -7 -17.001 -7h-128c-5.33301 0 -8 -2.66699 -8 -8s2.66699 -8 8 -8h95c6 0 11.333 -1.83301 16 -5.5s7.66699 -8.16699 9 -13.5v-5
c0 -6.66699 -2.33301 -12.334 -7 -17.001s-10.334 -7 -17.001 -7h-208c-22 0 -42.667 6 -62 18c4 9.33301 6 19.333 6 30c0 19.333 -6 36.333 -18 51s-27.333 23.667 -46 27v26c0 27.333 8 51.666 24 72.999s36.333 36.333 61 45l108 33c2 0.666992 4.33301 1 7 1
c6.66699 0 12.334 -2.33301 17.001 -7s7 -10.334 7 -17.001c0 -12 -5.66699 -19.667 -17 -23l-47 -17h199c6 0 11.333 -1.83301 16 -5.5s7.66699 -8.16699 9 -13.5v-5c0 -6.66699 -2.33301 -12.334 -7 -17.001s-10.334 -7 -17.001 -7h-128c-5.33301 0 -8 -2.66699 -8 -8
s2.66699 -8 8 -8h159zM416.002 384.016c-8.66699 0 -16.167 3.16699 -22.5 9.5s-9.5 13.833 -9.5 22.5s3.16699 16.167 9.5 22.5s13.833 9.5 22.5 9.5s16.167 -3.16699 22.5 -9.5s9.5 -13.833 9.5 -22.5s-3.16699 -16.167 -9.5 -22.5s-13.833 -9.5 -22.5 -9.5z
M112.002 32.0156c13.333 0 24.666 -4.66699 33.999 -14s14 -20.666 14 -33.999s-4.66699 -24.666 -14 -33.999s-20.666 -14 -33.999 -14s-24.666 4.66699 -33.999 14s-14 20.666 -14 33.999s4.66699 24.666 14 33.999s20.666 14 33.999 14z" />
    <glyph glyph-name="handshake-alt-slash" unicode="&#xe05f;" horiz-adv-x="640" 
d="M359 252l26 24c3.33301 3.33301 5 7.33301 5 12s-1.5 8.5 -4.5 11.5s-6.83301 4.5 -11.5 4.5c-4 0 -7.66699 -1.33301 -11 -4l-27 -25l-33 -30l331 -255c4 -3.33301 6 -7.66602 6 -12.999c0 -3.33301 -1 -6.66602 -3 -9.99902l-20 -25
c-3.33301 -4 -7.66602 -6 -12.999 -6c-3.33301 0 -6.33301 1 -9 3l-589 455c-4 3.33301 -6 7.66602 -6 12.999c0 3.33301 1 6.66602 3 9.99902l20 25c3.33301 4 7.66602 6 12.999 6c3.33301 0 6.33301 -1 9 -3l117 -91l21 21c6 6 13.333 9 22 9h84l-76 -69l26 -20l88 81
c6 5.33301 13.333 8 22 8h86c8.66699 0 16 -3 22 -9l55 -55h112c4.66699 0 8.5 -1.5 11.5 -4.5s4.5 -6.83301 4.5 -11.5v-192c0 -4 -1.5 -7.66699 -4.5 -11s-6.83301 -5 -11.5 -5h-98c-2.66699 15.333 -10 28 -22 38zM16 320h8.00098l382 -296l-9 -10
c-7.33301 -9.33301 -17 -14 -29 -14c-8.66699 0 -16.334 2.66699 -23.001 8l-18 16c-12.667 -16 -29.334 -24 -50.001 -24c-15.333 0 -28.666 4.66699 -39.999 14l-91 82h-130c-4.66699 0 -8.5 1.5 -11.5 4.5s-4.5 6.83301 -4.5 11.5v192c0 4.66699 1.5 8.5 4.5 11.5
s6.83301 4.5 11.5 4.5z" />
    <glyph glyph-name="handshake-slash" unicode="&#xe060;" horiz-adv-x="640" 
d="M0 320h24l72 -56v-168c0 -8.66699 -3.16699 -16.167 -9.5 -22.5s-13.833 -9.5 -22.5 -9.5h-64v256zM48 128c-4.66699 0 -8.5 -1.5 -11.5 -4.5s-4.5 -6.83301 -4.5 -11.5s1.5 -8.5 4.5 -11.5s6.83301 -4.5 11.5 -4.5s8.5 1.5 11.5 4.5s4.5 6.83301 4.5 11.5
s-1.5 8.5 -4.5 11.5s-6.83301 4.5 -11.5 4.5zM128 96l0.000976562 143l278 -215l-9 -10c-7.33301 -9.33301 -17 -14 -29 -14c-8.66699 0 -16.334 2.66699 -23.001 8l-18 16c-12.667 -16 -29.334 -24 -50.001 -24c-15.333 0 -28.666 4.66699 -39.999 14l-91 82h-18z
M544.001 320h96v-256h-64c-8.66699 0 -16.167 3.16699 -22.5 9.5s-9.5 13.833 -9.5 22.5v224zM592.001 96c4.66699 0 8.5 1.5 11.5 4.5s4.5 6.83301 4.5 11.5s-1.5 8.5 -4.5 11.5s-6.83301 4.5 -11.5 4.5s-8.5 -1.5 -11.5 -4.5s-4.5 -6.83301 -4.5 -11.5s1.5 -8.5 4.5 -11.5
s6.83301 -4.5 11.5 -4.5zM303.001 245l331.001 -255c4 -3.33301 6 -7.66602 6 -12.999c0 -3.33301 -1 -6.66602 -3 -9.99902l-20 -25c-3.33301 -4 -7.66602 -6 -12.999 -6c-3.33301 0 -6.33301 1 -9 3l-589 455c-4 3.33301 -6 7.66602 -6 12.999
c0 3.33301 1 6.66602 3 9.99902l20 25c3.33301 4 7.66602 6 12.999 6c3.33301 0 6.33301 -1 9 -3l117 -91l21 21c6 6 13.333 9 22 9h84l-76 -69l26 -20l88 81c6 5.33301 13.333 8 22 8h86c8.66699 0 16 -3 22 -9l55 -55v-194c-2.66699 3.33301 -5.33398 6 -8.00098 8
l-146 118l26 24c3.33301 3.33301 5 7.33301 5 12c0 4 -1.5 7.66699 -4.5 11s-6.83301 5 -11.5 5c-4 0 -7.33301 -1.33301 -10 -4z" />
    <glyph glyph-name="head-side-cough" unicode="&#xe061;" horiz-adv-x="640" 
d="M616 144c-6.66699 0 -12.334 2.33301 -17.001 7s-7 10.334 -7 17.001s2.33301 12.334 7 17.001s10.334 7 17.001 7s12.334 -2.33301 17.001 -7s7 -10.334 7 -17.001s-2.33301 -12.334 -7 -17.001s-10.334 -7 -17.001 -7zM552 32c6.66699 0 12.334 -2.33301 17.001 -7
s7 -10.334 7 -17.001s-2.33301 -12.334 -7 -17.001s-10.334 -7 -17.001 -7s-12.334 2.33301 -17.001 7s-7 10.334 -7 17.001s2.33301 12.334 7 17.001s10.334 7 17.001 7zM488 88c6.66699 0 12.334 -2.33301 17.001 -7s7 -10.334 7 -17.001s-2.33301 -12.334 -7 -17.001
s-10.334 -7 -17.001 -7s-12.334 2.33301 -17.001 7s-7 10.334 -7 17.001s2.33301 12.334 7 17.001s10.334 7 17.001 7zM616 -16c6.66699 0 12.334 -2.33301 17.001 -7s7 -10.334 7 -17.001s-2.33301 -12.334 -7 -17.001s-10.334 -7 -17.001 -7s-12.334 2.33301 -17.001 7
s-7 10.334 -7 17.001s2.33301 12.334 7 17.001s10.334 7 17.001 7zM616 88c6.66699 0 12.334 -2.33301 17.001 -7s7 -10.334 7 -17.001s-2.33301 -12.334 -7 -17.001s-10.334 -7 -17.001 -7s-12.334 2.33301 -17.001 7s-7 10.334 -7 17.001s2.33301 12.334 7 17.001
s10.334 7 17.001 7zM552 128c6.66699 0 12.334 -2.33301 17.001 -7s7 -10.334 7 -17.001s-2.33301 -12.334 -7 -17.001s-10.334 -7 -17.001 -7s-12.334 2.33301 -17.001 7s-7 10.334 -7 17.001s2.33301 12.334 7 17.001s10.334 7 17.001 7zM477 173c2 -4 3 -8.33301 3 -13
c0 -8.66699 -3.16699 -16.167 -9.5 -22.5s-13.833 -9.5 -22.5 -9.5h-32v-32h-96c-8.66699 0 -16.167 -3.16699 -22.5 -9.5s-9.5 -13.833 -9.5 -22.5s3.16699 -16.167 9.5 -22.5s13.833 -9.5 22.5 -9.5h96c0 -17.333 -6.33301 -32.333 -19 -45s-27.667 -19 -45 -19h-64v-32
h-224v177c-42.667 38.667 -64 86.334 -64 143.001c0 53.333 18.667 98.666 56 135.999s82.666 56 135.999 56h42c34.667 0 66.834 -7.83301 96.501 -23.5s54.167 -37.167 73.5 -64.5c9.33301 -13.333 22.833 -45.5 40.5 -96.5s28.5 -81.167 32.5 -90.5zM288 224
c8.66699 0 16.167 3.16699 22.5 9.5s9.5 13.833 9.5 22.5s-3.16699 16.167 -9.5 22.5s-13.833 9.5 -22.5 9.5s-16.167 -3.16699 -22.5 -9.5s-9.5 -13.833 -9.5 -22.5s3.16699 -16.167 9.5 -22.5s13.833 -9.5 22.5 -9.5z" />
    <glyph glyph-name="head-side-cough-slash" unicode="&#xe062;" horiz-adv-x="640" 
d="M454 129l179.999 -139c4 -3.33301 6 -7.66602 6 -12.999c0 -3.33301 -1 -6.66602 -3 -9.99902l-20 -25c-3.33301 -4 -7.66602 -6 -12.999 -6c-3.33301 0 -6.33301 1 -9 3l-589 455c-4 3.33301 -6 7.66602 -6 12.999c0 3.33301 1 6.66602 3 9.99902l20 25
c3.33301 4 7.66602 6 12.999 6c3.33301 0 6.33301 -1 9 -3l39 -30c32.667 22 68.667 33 108 33h42c34.667 0 66.834 -7.83301 96.501 -23.5s54.167 -37.167 73.5 -64.5c9.33301 -13.333 22.833 -45.5 40.5 -96.5s28.5 -81.167 32.5 -90.5
c4.66699 -9.33301 4.5 -18.5 -0.5 -27.5s-12.5 -14.5 -22.5 -16.5zM312.999 238c4.66699 6 7 12 7 18c0 8.66699 -3.16699 16.167 -9.5 22.5s-13.833 9.5 -22.5 9.5c-10 0 -18 -4 -24 -12zM615.999 144c-6.66699 0 -12.334 2.33301 -17.001 7s-7 10.334 -7 17.001
s2.33301 12.334 7 17.001s10.334 7 17.001 7s12.334 -2.33301 17.001 -7s7 -10.334 7 -17.001s-2.33301 -12.334 -7 -17.001s-10.334 -7 -17.001 -7zM551.999 80c-6.66699 0 -12.334 2.33301 -17.001 7s-7 10.334 -7 17.001s2.33301 12.334 7 17.001s10.334 7 17.001 7
s12.334 -2.33301 17.001 -7s7 -10.334 7 -17.001s-2.33301 -12.334 -7 -17.001s-10.334 -7 -17.001 -7zM287.999 64c0 -8.66699 3.16699 -16.1689 9.5 -22.502s13.833 -9.5 22.5 -9.5h96c0 -17.333 -6.33301 -32.333 -19 -45s-27.667 -19 -45 -19h-64v-32h-224v177
c-42.667 38.667 -64 86.334 -64 143.001c0 30.667 7 59.334 21 86.001l319 -246h-20c-8.66699 0 -16.167 -3.16699 -22.5 -9.5s-9.5 -13.833 -9.5 -22.5zM615.999 87.998c6.66699 0 12.334 -2.33301 17.001 -7s7 -10.334 7 -17.001s-2.33301 -12.334 -7 -17.001
s-10.334 -7 -17.001 -7s-12.334 2.33301 -17.001 7s-7 10.334 -7 17.001s2.33301 12.334 7 17.001s10.334 7 17.001 7z" />
    <glyph glyph-name="head-side-mask" unicode="&#xe063;" 
d="M0 264c0.666992 9.33301 2 18.667 4 28l220 -161v-195h-160v177c-44.667 40.667 -66 91 -64 151zM509 173.001c2 -4 3 -8 3 -12v-1h-273l-226 164c14.667 36.667 39.167 66.5 73.5 89.5s72.166 34.5 113.499 34.5h66c34.667 0 66.834 -7.83301 96.501 -23.5
s54.167 -37.167 73.5 -64.5c9.33301 -13.333 22.833 -45.5 40.5 -96.5s28.5 -81.167 32.5 -90.5zM320 224.001c8.66699 0 16.167 3.16699 22.5 9.5s9.5 13.833 9.5 22.5s-3.16699 16.167 -9.5 22.5s-13.833 9.5 -22.5 9.5s-16.167 -3.16699 -22.5 -9.5
s-9.5 -13.833 -9.5 -22.5s3.16699 -16.167 9.5 -22.5s13.833 -9.5 22.5 -9.5zM336 80.001c-4.66699 0 -8.5 -1.5 -11.5 -4.5s-4.5 -6.83301 -4.5 -11.5s1.5 -8.5 4.5 -11.5s6.83301 -4.5 11.5 -4.5h149l-10 -32h-139c-4.66699 0 -8.5 -1.5 -11.5 -4.5
s-4.5 -6.83301 -4.5 -11.5s1.5 -8.5 4.5 -11.5s6.83301 -4.5 11.5 -4.5h128l-1 -4c-4.66699 -13.333 -12.5 -24 -23.5 -32s-23.5 -12 -37.5 -12h-146v192h256l-16 -48h-160z" />
    <glyph glyph-name="head-side-virus" unicode="&#xe064;" 
d="M272 208c4.66699 0 8.5 -1.5 11.5 -4.5s4.5 -6.83301 4.5 -11.5s-1.5 -8.5 -4.5 -11.5s-6.83301 -4.5 -11.5 -4.5s-8.5 1.5 -11.5 4.5s-4.5 6.83301 -4.5 11.5s1.5 8.5 4.5 11.5s6.83301 4.5 11.5 4.5zM208 272c4.66699 0 8.5 -1.5 11.5 -4.5s4.5 -6.83301 4.5 -11.5
s-1.5 -8.5 -4.5 -11.5s-6.83301 -4.5 -11.5 -4.5s-8.5 1.5 -11.5 4.5s-4.5 6.83301 -4.5 11.5s1.5 8.5 4.5 11.5s6.83301 4.5 11.5 4.5zM509 173c2 -4 3 -8.33203 3 -12.999c0 -8.66699 -3.16699 -16.167 -9.5 -22.5s-13.833 -9.5 -22.5 -9.5h-32v-64
c0 -17.333 -6.33301 -32.333 -19 -45s-27.667 -19 -45 -19h-64v-64h-256v177c-42.667 38 -64 85.667 -64 143c0 53.333 18.667 98.666 56 135.999s82.666 56 135.999 56h74c34.667 0 66.834 -7.83301 96.501 -23.5s54.167 -37.167 73.5 -64.5
c9.33301 -14 22.833 -46.333 40.5 -97s28.5 -80.667 32.5 -90zM368 208.001c4.66699 0 8.5 1.5 11.5 4.5s4.5 6.83301 4.5 11.5s-1.5 8.5 -4.5 11.5s-6.83301 4.5 -11.5 4.5h-12c-14.667 0 -24.667 6.66699 -30 20s-3 25 7 35l9 8c3.33301 3.33301 5 7.16602 5 11.499
s-1.66699 8.16602 -5 11.499s-7.16602 5 -11.499 5s-8.16602 -1.66699 -11.499 -5l-8 -9c-10 -10 -21.667 -12.333 -35 -7s-20 15.333 -20 30v12c0 4.66699 -1.5 8.5 -4.5 11.5s-6.83301 4.5 -11.5 4.5s-8.5 -1.5 -11.5 -4.5s-4.5 -6.83301 -4.5 -11.5v-12
c0 -14.667 -6.66699 -24.667 -20 -30s-25 -3 -35 7l-8 9c-3.33301 3.33301 -7.16602 5 -11.499 5s-8.16602 -1.66699 -11.499 -5s-5 -7.16602 -5 -11.499s1.66699 -8.16602 5 -11.499l9 -8c10 -10 12.333 -21.667 7 -35s-15.333 -20 -30 -20h-12
c-4.66699 0 -8.5 -1.5 -11.5 -4.5s-4.5 -6.83301 -4.5 -11.5s1.5 -8.5 4.5 -11.5s6.83301 -4.5 11.5 -4.5h12c14.667 0 24.667 -6.66699 30 -20s3 -25 -7 -35l-9 -8c-3.33301 -3.33301 -5 -7.16602 -5 -11.499s1.66699 -8.16602 5 -11.499s7.16602 -5 11.499 -5
s8.16602 1.66699 11.499 5l8 9c10 10 21.667 12.333 35 7s20 -15.333 20 -30v-12c0 -4.66699 1.5 -8.5 4.5 -11.5s6.83301 -4.5 11.5 -4.5s8.5 1.5 11.5 4.5s4.5 6.83301 4.5 11.5v12c0 14.667 6.66699 24.667 20 30s25 3 35 -7l8 -9c3.33301 -3.33301 7.16602 -5 11.499 -5
s8.16602 1.66699 11.499 5s5 7.16602 5 11.499s-1.66699 8.16602 -5 11.499l-9 8c-10 10 -12.333 21.667 -7 35s15.333 20 30 20h12z" />
    <glyph glyph-name="house-user" unicode="&#xe065;" horiz-adv-x="576" 
d="M571 212c2.66699 -3.33301 4.33203 -7.33301 4.99902 -12c-0.666992 -4 -2 -7.66699 -4 -11l-22 -24c-3.33301 -2.66699 -7 -4.33398 -11 -5.00098c-4 0.666992 -7.66699 2 -11 4l-16 14v-210c0 -8.66699 -3.16699 -16.167 -9.5 -22.5s-13.833 -9.5 -22.5 -9.5h-384
c-8.66699 0 -16.167 3.16699 -22.5 9.5s-9.5 13.833 -9.5 22.5v210l-16 -14c-3.33301 -2 -6.66602 -3.33301 -9.99902 -4c-4.66699 0.666992 -8.66699 2.33398 -12 5.00098l-22 24c-2.66699 3.33301 -4 7 -4 11c0 4.66699 1.66699 8.66699 5 12l256 226
c8 6.66699 17 10 27 10s19 -3.33301 27 -10l101 -90v52c0 4.66699 1.5 8.5 4.5 11.5s6.83301 4.5 11.5 4.5h64c4.66699 0 8.5 -1.5 11.5 -4.5s4.5 -6.83301 4.5 -11.5v-136zM287.998 272c-17.333 0 -32.333 -6.33301 -45 -19s-19 -27.667 -19 -45s6.33301 -32.333 19 -45
s27.667 -19 45 -19s32.333 6.33301 45 19s19 27.667 19 45s-6.33301 32.333 -19 45s-27.667 19 -45 19zM399.998 0c4.66699 0 8.50195 1.5 11.502 4.5s4.5 6.83301 4.5 11.5c0 26.667 -9.33301 49.334 -28 68.001s-41.334 28 -68.001 28h-64
c-26.667 0 -49.334 -9.33301 -68.001 -28s-28 -41.334 -28 -68.001c0 -4.66699 1.5 -8.5 4.5 -11.5s6.83301 -4.5 11.5 -4.5h224z" />
    <glyph glyph-name="laptop-house" unicode="&#xe066;" horiz-adv-x="640" 
d="M272 160v-128h-176c-8.66699 0 -16.167 3.16699 -22.5 9.5s-9.5 13.833 -9.5 22.5v164l-22 -19c-2.66699 -2 -5.66699 -3 -9 -3c-4 0 -7.66699 1.33301 -11 4l-18 22c-2.66699 2.66699 -4 5.66699 -4 9c0 4 1.66699 7.66699 5 11l212 187c6.66699 6 14.5 9 23.5 9
s16.833 -3 23.5 -9l88 -78v39c0 4.66699 1.5 8.5 4.5 11.5s6.83301 4.5 11.5 4.5h32c4.66699 0 8.5 -1.5 11.5 -4.5s4.5 -6.83301 4.5 -11.5v-96l59 -52c3.33301 -3.33301 5 -7 5 -11c0 -3.33301 -1.33301 -6.33301 -4 -9l-6 -8h-137c-18 0 -33 -7 -45 -21v37
c0 4.66699 -1.5 8.5 -4.5 11.5s-6.83301 4.5 -11.5 4.5h-64c-4.66699 0 -8.5 -1.5 -11.5 -4.5s-4.5 -6.83301 -4.5 -11.5v-64c0 -4.66699 1.5 -8.5 4.5 -11.5s6.83301 -4.5 11.5 -4.5h64zM629 0c3.33301 0 6 -1 8 -3s3 -4.66699 3 -8v-10
c0 -12 -4.16699 -22.167 -12.5 -30.5s-18.5 -12.5 -30.5 -12.5h-298c-12 0 -22.167 4.16699 -30.5 12.5s-12.5 18.5 -12.5 30.5v10c0 3.33301 1 6 3 8s4.66699 3 8 3h37v160c0 8.66699 2.83301 16.167 8.5 22.5s12.5 9.5 20.5 9.5h230c8 0 14.833 -3.16699 20.5 -9.5
s8.5 -13.833 8.5 -22.5v-160h37zM544 0v144h-192v-144h192z" />
    <glyph glyph-name="lungs-virus" unicode="&#xe067;" horiz-adv-x="640" 
d="M344 297c-7.33301 4.66699 -15.333 7 -24 7s-16.667 -2.33301 -24 -7v135c0 4.66699 1.5 8.5 4.5 11.5s6.83301 4.5 11.5 4.5h16c4.66699 0 8.5 -1.5 11.5 -4.5s4.5 -6.83301 4.5 -11.5v-135zM196 4c8.66699 -10 19.6611 -15.002 32.9941 -15.002
c2.66699 0 5.33398 0.333008 8.00098 1c-13.333 -17.333 -30.666 -29 -51.999 -35l-60 -15c-31.333 -8.66699 -60 -3.83398 -86 14.499s-39 42.833 -39 73.5c0 10 1.33301 20 4 30c22 82 56 159 102 231c0.666992 1.33301 3 5 7 11s6.33301 9.66699 7 11
s2.83398 4.5 6.50098 9.5s6.16699 8.16699 7.5 9.5s3.83301 3.66602 7.5 6.99902s6.83398 5.5 9.50098 6.5s5.83398 2.33301 9.50098 4s7.66699 2.83398 12 3.50098s8.83301 1 13.5 1c19.333 0 35.833 -6.33301 49.5 -19s20.5 -28.334 20.5 -47.001v-27
c-8 5.33301 -17 8 -27 8c-13.333 0 -24.666 -4.66699 -33.999 -14s-14 -20.666 -14 -33.999s5 -24.666 15 -33.999l8 -9h-12c-13.333 0 -24.666 -4.66699 -33.999 -14s-14 -20.666 -14 -33.999s4.66699 -24.666 14 -33.999s20.666 -14 33.999 -14h12l-8 -9
c-9.33301 -9.33301 -14 -20.5 -14 -33.5s4.66699 -24.167 14 -33.5zM421.994 25.998c-3.33301 -3.33301 -7.16602 -5 -11.499 -5s-8.16602 1.66699 -11.499 5l-8 9c-10 10 -21.667 12.167 -35 6.5s-20 -15.5 -20 -29.5v-12c0 -4.66699 -1.5 -8.5 -4.5 -11.5
s-6.83301 -4.5 -11.5 -4.5s-8.5 1.5 -11.5 4.5s-4.5 6.83301 -4.5 11.5v12c0 14 -6.66699 23.833 -20 29.5s-25 3.5 -35 -6.5l-8 -9c-3.33301 -3.33301 -7.16602 -5 -11.499 -5s-8.16602 1.66699 -11.499 5s-5 7.16602 -5 11.499s1.66699 8.16602 5 11.499l9 8
c10 10 12.333 21.667 7 35s-15.333 20 -30 20h-12c-4.66699 0 -8.5 1.5 -11.5 4.5s-4.5 6.83301 -4.5 11.5s1.5 8.5 4.5 11.5s6.83301 4.5 11.5 4.5h12c14.667 0 24.667 6.66699 30 20s3 25 -7 35l-9 8c-3.33301 3.33301 -5 7.16602 -5 11.499s1.66699 8.16602 5 11.499
s7.16602 5 11.499 5s8.16602 -1.66699 11.499 -5l8 -9c10 -10 21.667 -12.333 35 -7s20 15.333 20 30v12c0 4.66699 1.5 8.5 4.5 11.5s6.83301 4.5 11.5 4.5s8.5 -1.5 11.5 -4.5s4.5 -6.83301 4.5 -11.5v-12c0 -14.667 6.66699 -24.667 20 -30s25 -3 35 7l8 9
c3.33301 3.33301 7.16602 5 11.499 5s8.16602 -1.66699 11.499 -5s5 -7.16602 5 -11.499s-1.66699 -8.16602 -5 -11.499l-9 -8c-10 -10 -12.333 -21.667 -7 -35s15.333 -20 30 -20h12c4.66699 0 8.5 -1.5 11.5 -4.5s4.5 -6.83301 4.5 -11.5s-1.5 -8.5 -4.5 -11.5
s-6.83301 -4.5 -11.5 -4.5h-12c-14.667 0 -24.667 -6.66699 -30 -20s-3 -25 7 -35l9 -8c3.33301 -3.33301 5 -7.16602 5 -11.499s-1.66699 -8.16602 -5 -11.499zM287.994 143.998c4.66699 0 8.5 1.5 11.5 4.5s4.5 6.83301 4.5 11.5s-1.5 8.5 -4.5 11.5
s-6.83301 4.5 -11.5 4.5s-8.5 -1.5 -11.5 -4.5s-4.5 -6.83301 -4.5 -11.5s1.5 -8.5 4.5 -11.5s6.83301 -4.5 11.5 -4.5zM351.994 79.998c4.66699 0 8.5 1.5 11.5 4.5s4.5 6.83301 4.5 11.5s-1.5 8.5 -4.5 11.5s-6.83301 4.5 -11.5 4.5s-8.5 -1.5 -11.5 -4.5
s-4.5 -6.83301 -4.5 -11.5s1.5 -8.5 4.5 -11.5s6.83301 -4.5 11.5 -4.5zM635.994 57.998c2.66699 -10 3.99707 -19.998 3.99707 -29.998c0 -30.667 -13 -55.167 -39 -73.5s-54.667 -23.166 -86 -14.499l-60 15c-21.333 6 -38.666 17.667 -51.999 35
c2.66699 -0.666992 5.33398 -1 8.00098 -1c13.333 0 24.666 4.66699 33.999 14s14 20.666 14 33.999s-5 24.666 -15 33.999l-8 9h12c13.333 0 24.666 4.66699 33.999 14s14 20.666 14 33.999s-4.66699 24.666 -14 33.999s-20.666 14 -33.999 14h-12l8 9
c10 9.33301 15 20.5 15 33.5s-4.83301 24.333 -14.5 34s-20.834 14.5 -33.501 14.5c-10 0 -19 -2.66699 -27 -8v27c0 18.667 6.83301 34.334 20.5 47.001s30.167 19 49.5 19c4.66699 0 9.16699 -0.333008 13.5 -1s8.33301 -1.83398 12 -3.50098s6.83398 -3 9.50098 -4
s5.83398 -3.16699 9.50098 -6.5s6.16699 -5.66602 7.5 -6.99902s3.83301 -4.5 7.5 -9.5s5.83398 -8.16699 6.50098 -9.5s3 -5 7 -11s6.33301 -9.66699 7 -11c46 -72 80 -149 102 -231z" />
    <glyph glyph-name="people-arrows" unicode="&#xe068;" horiz-adv-x="576" 
d="M96 320c-17.333 0 -32.333 6.33301 -45 19s-19 27.667 -19 45s6.33301 32.333 19 45s27.667 19 45 19s32.333 -6.33301 45 -19s19 -27.667 19 -45s-6.33301 -32.333 -19 -45s-27.667 -19 -45 -19zM96 144c0 -12.667 4.66602 -23.3301 13.999 -31.9971l50 -48v-96
c0 -8.66699 -3.16699 -16.167 -9.5 -22.5s-13.833 -9.5 -22.5 -9.5h-64c-8.66699 0 -16.167 3.16699 -22.5 9.5s-9.5 13.833 -9.5 22.5v128c-8.66699 0 -16.167 3.16699 -22.5 9.5s-9.5 13.833 -9.5 22.5v96c0 17.333 6.33301 32.333 19 45s27.667 19 45 19h64
c13.333 0 25.333 -3.66699 36 -11s18.334 -17 23.001 -29c0 -0.666992 -0.666992 -1.33398 -2 -2.00098s-2.33301 -1.33398 -3 -2.00098l-72 -68c-9.33301 -8.66699 -14 -19.334 -14 -32.001zM479.999 320.004c-17.333 0 -32.333 6.33301 -45 19s-19 27.667 -19 45
s6.33301 32.333 19 45s27.667 19 45 19s32.333 -6.33301 45 -19s19 -27.667 19 -45s-6.33301 -32.333 -19 -45s-27.667 -19 -45 -19zM511.999 288.004c17.333 0 32.332 -6.33691 44.999 -19.0039s19 -27.667 19 -45v-96c0 -8.66699 -3.16699 -16.167 -9.5 -22.5
s-13.833 -9.5 -22.5 -9.5v-128c0 -8.66699 -3.16699 -16.167 -9.5 -22.5s-13.833 -9.5 -22.5 -9.5h-64c-8.66699 0 -16.167 3.16699 -22.5 9.5s-9.5 13.833 -9.5 22.5v96l50 48c9.33301 8.66699 14 19.334 14 32.001s-4.66699 23.334 -14 32.001l-72 68
c-0.666992 0.666992 -1.66699 1.33398 -3 2.00098s-2 1.33398 -2 2.00098c4.66699 12 12.334 21.667 23.001 29s22.667 11 36 11h64zM443.998 153c2.66699 -2.66699 4 -5.66699 4 -9s-1.33301 -6.33301 -4 -9l-72 -68c-2 -2 -4.66699 -3 -8 -3
s-6.16602 1.16699 -8.49902 3.5s-3.5 5.16602 -3.5 8.49902v36h-128v-36c0 -3.33301 -1.16699 -6.16602 -3.5 -8.49902s-5.16602 -3.5 -8.49902 -3.5s-6 1 -8 3l-72 68c-2.66699 2.66699 -4 5.66699 -4 9s1.33301 6.33301 4 9l72 68c2 2 4.66699 3 8 3
s6.16602 -1.16699 8.49902 -3.5s3.5 -5.16602 3.5 -8.49902v-36h128v36c0 3.33301 1.16699 6.16602 3.5 8.49902s5.16602 3.5 8.49902 3.5s6 -1 8 -3z" />
    <glyph glyph-name="plane-slash" unicode="&#xe069;" horiz-adv-x="640" 
d="M32 300l-0.000976562 4c0 2.66699 0.666992 5.33398 2 8.00098l325 -251l-66 -117c-3.33301 -5.33301 -8 -8 -14 -8h-66c-4 0 -7.66699 1.5 -11 4.5s-5 6.83301 -5 11.5c0 1.33301 0.333008 2.66602 1 3.99902l49 172h-103l-43 -58c-3.33301 -4 -7.66602 -6 -12.999 -6
h-40c-4.66699 0 -8.5 1.5 -11.5 4.5s-4.5 6.83301 -4.5 11.5v4l32 108zM633.999 -10c4 -3.33301 6 -7.66504 6 -12.998c0 -3.33301 -1 -6.66602 -3 -9.99902l-20 -25c-3.33301 -4 -7.66602 -6 -12.999 -6c-3.33301 0 -6.33301 1 -9 3l-589 455
c-4 3.33301 -6 7.66602 -6 12.999c0 3.33301 1 6.66602 3 9.99902l20 25c3.33301 4 7.66602 6 12.999 6c3.33301 0 6.33301 -1 9 -3l190 -147l-37 130c-0.666992 1.33301 -1 2.66602 -1 3.99902c0 4.66699 1.66699 8.5 5 11.5s7 4.5 11 4.5h66c6 0 10.667 -2.66699 14 -8
l105 -184h114c20 0 41 -6.5 63 -19.5s33 -27.833 33 -44.5s-11 -31.5 -33 -44.5s-43 -19.5 -63 -19.5h-57z" />
    <glyph glyph-name="pump-medical" unicode="&#xe06a;" horiz-adv-x="384" 
d="M236 288c16 0 30.168 -5.5 42.501 -16.5s19.166 -24.833 20.499 -41.5l21 -224v-6c0 -17.333 -6.33301 -32.333 -19 -45s-27.667 -19 -45 -19h-192c-18 0 -33.167 6.33301 -45.5 19s-18.5 27.667 -18.5 45v6l21 224c1.33301 16.667 8 30.5 20 41.5s26.333 16.5 43 16.5
h152zM240.001 115v27c0 3.33301 -1.33301 6.33301 -4 9s-5.66699 4 -9 4h-40v40c0 3.33301 -1.33301 6.33301 -4 9s-6 4 -10 4h-26c-4 0 -7.33301 -1.33301 -10 -4s-4 -5.66699 -4 -9v-40h-40c-3.33301 0 -6.33301 -1.33301 -9 -4s-4 -5.66699 -4 -9v-27
c0 -4 1.33301 -7.16699 4 -9.5s5.66699 -3.5 9 -3.5h40v-40c0 -4 1.33301 -7.33301 4 -10s6 -4 10 -4h26c4 0 7.33301 1.33301 10 4s4 6 4 10v40h40c3.33301 0 6.33301 1.16699 9 3.5s4 5.5 4 9.5zM379.001 354c3.33301 -3.33301 4.99805 -7.16797 4.99805 -11.501
s-1.66699 -8.16602 -5 -11.499l-22 -22c-3.33301 -3.33301 -7.16602 -5 -11.499 -5s-8.16602 1.66699 -11.499 5l-43 43h-67v-32h-128v96c0 8.66699 3.16699 16.167 9.5 22.5s13.833 9.5 22.5 9.5h64c8.66699 0 16.167 -3.16699 22.5 -9.5s9.5 -13.833 9.5 -22.5h67
c17.333 0 32.333 -6.33301 45 -19z" />
    <glyph glyph-name="pump-soap" unicode="&#xe06b;" horiz-adv-x="384" 
d="M236 288c16.667 0 31 -5.66699 43 -17s18.667 -25 20 -41l21 -224v-6c0 -17.333 -6.33301 -32.333 -19 -45s-27.667 -19 -45 -19h-192c-17.333 0 -32.333 6.16699 -45 18.5s-19 27.5 -19 45.5v6l21 224c1.33301 16 8 29.667 20 41s26.333 17 43 17h152zM160 32
c16.667 0 30.832 5.66699 42.499 17s17.5 25.333 17.5 42c0 18.667 -17.333 51 -52 97c-2 2.66699 -4.66699 4 -8 4s-6 -1.33301 -8 -4c-34.667 -46.667 -52 -79 -52 -97c0 -16.667 5.83301 -30.667 17.5 -42s25.834 -17 42.501 -17zM378.998 354
c3.33301 -3.33301 4.99805 -7.16797 4.99805 -11.501s-1.66699 -8.16602 -5 -11.499l-22 -22c-3.33301 -3.33301 -7.16602 -5 -11.499 -5s-8.16602 1.66699 -11.499 5l-43 43h-67v-32h-128v96c0 8.66699 3.16699 16.167 9.5 22.5s13.833 9.5 22.5 9.5h64
c8.66699 0 16.167 -3.16699 22.5 -9.5s9.5 -13.833 9.5 -22.5h67c17.333 0 32.333 -6.33301 45 -19z" />
    <glyph glyph-name="shield-virus" unicode="&#xe06c;" 
d="M224 256c4.66699 0 8.5 -1.5 11.5 -4.5s4.5 -6.83301 4.5 -11.5s-1.5 -8.5 -4.5 -11.5s-6.83301 -4.5 -11.5 -4.5s-8.5 1.5 -11.5 4.5s-4.5 6.83301 -4.5 11.5s1.5 8.5 4.5 11.5s6.83301 4.5 11.5 4.5zM466 364c20 -8 30.001 -22.665 30.001 -43.998
c0 -52 -7.33301 -100.833 -22 -146.5s-33.667 -83.667 -57 -114s-47 -55.5 -71 -75.5s-48 -34.667 -72 -44c-5.33301 -2.66699 -11.333 -4 -18 -4s-12.667 1.33301 -18 4c-28 11.333 -54.833 28.166 -80.5 50.499s-49.167 49.333 -70.5 81s-38.5 69.167 -51.5 112.5
s-19.5 88.666 -19.5 135.999c0 10 2.66699 19 8 27s12.666 13.667 21.999 17l192 80c6 2.66699 12 4 18 4c6.66699 0 12.667 -1.33301 18 -4zM384.001 192.002c4.66699 0 8.5 1.5 11.5 4.5s4.5 6.83301 4.5 11.5s-1.5 8.5 -4.5 11.5s-6.83301 4.5 -11.5 4.5h-12
c-14.667 0 -24.667 6.66699 -30 20s-3 25 7 35l9 8c3.33301 3.33301 5 7.16602 5 11.499s-1.66699 8.16602 -5 11.499s-7.16602 5 -11.499 5s-8.16602 -1.66699 -11.499 -5l-8 -9c-10 -10 -21.667 -12.333 -35 -7s-20 15.333 -20 30v12c0 4.66699 -1.5 8.5 -4.5 11.5
s-6.83301 4.5 -11.5 4.5s-8.5 -1.5 -11.5 -4.5s-4.5 -6.83301 -4.5 -11.5v-12c0 -14.667 -6.66699 -24.667 -20 -30s-25 -3 -35 7l-8 9c-3.33301 3.33301 -7.16602 5 -11.499 5s-8.16602 -1.66699 -11.499 -5s-5 -7.16602 -5 -11.499s1.66699 -8.16602 5 -11.499l9 -8
c10 -10 12.333 -21.667 7 -35s-15.333 -20 -30 -20h-12c-4.66699 0 -8.5 -1.5 -11.5 -4.5s-4.5 -6.83301 -4.5 -11.5s1.5 -8.5 4.5 -11.5s6.83301 -4.5 11.5 -4.5h12c14.667 0 24.667 -6.66699 30 -20s3 -25 -7 -35l-9 -8c-3.33301 -3.33301 -5 -7.16602 -5 -11.499
s1.66699 -8.16602 5 -11.499s7.16602 -5 11.499 -5s8.16602 1.66699 11.499 5l8 9c10 10 21.667 12.333 35 7s20 -15.333 20 -30v-12c0 -4.66699 1.5 -8.5 4.5 -11.5s6.83301 -4.5 11.5 -4.5s8.5 1.5 11.5 4.5s4.5 6.83301 4.5 11.5v12c0 14.667 6.66699 24.667 20 30
s25 3 35 -7l8 -9c3.33301 -3.33301 7.16602 -5 11.499 -5s8.16602 1.66699 11.499 5s5 7.16602 5 11.499s-1.66699 8.16602 -5 11.499l-9 8c-10 10 -12.333 21.667 -7 35s15.333 20 30 20h12zM288.001 192.002c4.66699 0 8.5 -1.5 11.5 -4.5s4.5 -6.83301 4.5 -11.5
s-1.5 -8.5 -4.5 -11.5s-6.83301 -4.5 -11.5 -4.5s-8.5 1.5 -11.5 4.5s-4.5 6.83301 -4.5 11.5s1.5 8.5 4.5 11.5s6.83301 4.5 11.5 4.5z" />
    <glyph glyph-name="sink" unicode="&#xe06d;" 
d="M32 32l0.00195312 32h448v-32c0 -26.667 -9.33301 -49.334 -28 -68.001s-41.334 -28 -68.001 -28h-256c-26.667 0 -49.334 9.33301 -68.001 28s-28 41.334 -28 68.001zM496.002 160c4.66699 0 8.49902 -1.49902 11.499 -4.49902s4.5 -6.83301 4.5 -11.5v-32
c0 -4.66699 -1.5 -8.5 -4.5 -11.5s-6.83301 -4.5 -11.5 -4.5h-480c-4.66699 0 -8.5 1.5 -11.5 4.5s-4.5 6.83301 -4.5 11.5v32c0 4.66699 1.5 8.5 4.5 11.5s6.83301 4.5 11.5 4.5h96v32h-64c-4.66699 0 -8.5 1.5 -11.5 4.5s-4.5 6.83301 -4.5 11.5v16
c0 4.66699 1.5 8.5 4.5 11.5s6.83301 4.5 11.5 4.5h80c8.66699 0 16.167 -3.16699 22.5 -9.5s9.5 -13.833 9.5 -22.5v-48h64v188c0 24 7.16699 45.333 21.5 64s32.833 30 55.5 34c6 1.33301 12.333 2 19 2c26.667 0 49.334 -9.33301 68.001 -28s28 -41.334 28 -68.001v-16
c0 -4.66699 -1.5 -8.5 -4.5 -11.5s-6.83301 -4.5 -11.5 -4.5h-32c-4.66699 0 -8.5 1.5 -11.5 4.5s-4.5 6.83301 -4.5 11.5v16c0 8.66699 -3.16699 16.167 -9.5 22.5s-13.833 9.5 -22.5 9.5s-16.167 -3.16699 -22.5 -9.5s-9.5 -13.833 -9.5 -22.5v-192h64v48
c0 8.66699 3.16699 16.167 9.5 22.5s13.833 9.5 22.5 9.5h80c4.66699 0 8.5 -1.5 11.5 -4.5s4.5 -6.83301 4.5 -11.5v-16c0 -4.66699 -1.5 -8.5 -4.5 -11.5s-6.83301 -4.5 -11.5 -4.5h-64v-32h96z" />
    <glyph glyph-name="soap" unicode="&#xe06e;" 
d="M416 256c26.667 0 49.334 -9.33301 68.001 -28s28 -41.334 28 -68.001v-128c0 -26.667 -9.33301 -49.334 -28 -68.001s-41.334 -28 -68.001 -28h-320c-26.667 0 -49.334 9.33301 -68.001 28s-28 41.334 -28 68.001v128c0 26.667 9.33301 49.334 28 68.001
s41.334 28 68.001 28h128c0 -24.667 8.33301 -46 25 -64h-89c-26.667 0 -49.334 -9.33301 -68.001 -28s-28 -41.334 -28 -68.001s9.33301 -49.334 28 -68.001s41.334 -28 68.001 -28h192c26.667 0 49.334 9.33301 68.001 28s28 41.334 28 68.001
c0 20 -5.83301 38.333 -17.5 55s-26.834 28.334 -45.501 35.001c20.667 18.667 31 42 31 70zM320 192c-17.333 0 -32.333 6.33301 -45 19s-19 27.667 -19 45s6.33301 32.333 19 45s27.667 19 45 19s32.333 -6.33301 45 -19s19 -27.667 19 -45s-6.33301 -32.333 -19 -45
s-27.667 -19 -45 -19zM208 352c-13.333 0 -24.666 4.66699 -33.999 14s-14 20.666 -14 33.999s4.66699 24.666 14 33.999s20.666 14 33.999 14s24.666 -4.66699 33.999 -14s14 -20.666 14 -33.999s-4.66699 -24.666 -14 -33.999s-20.666 -14 -33.999 -14zM384 384
c-8.66699 0 -16.167 3.16699 -22.5 9.5s-9.5 13.833 -9.5 22.5s3.16699 16.167 9.5 22.5s13.833 9.5 22.5 9.5s16.167 -3.16699 22.5 -9.5s9.5 -13.833 9.5 -22.5s-3.16699 -16.167 -9.5 -22.5s-13.833 -9.5 -22.5 -9.5zM160 160h192c17.333 0 32.333 -6.33301 45 -19
s19 -27.667 19 -45s-6.33301 -32.333 -19 -45s-27.667 -19 -45 -19h-192c-17.333 0 -32.333 6.33301 -45 19s-19 27.667 -19 45s6.33301 32.333 19 45s27.667 19 45 19z" />
    <glyph glyph-name="stopwatch-20" unicode="&#xe06f;" horiz-adv-x="448" 
d="M398 257c22.667 -34 34.001 -71.6709 34.001 -113.004c0 -58 -20.667 -107.333 -62 -148s-91 -60.667 -149 -60c-57.333 0.666992 -106.166 22.334 -146.499 65.001s-59.833 92.334 -58.5 149.001c1.33301 50.667 18.833 94.667 52.5 132s74.834 60 123.501 68v34h-32
c-4.66699 0 -8.5 1.5 -11.5 4.5s-4.5 6.83301 -4.5 11.5v32c0 4.66699 1.5 8.5 4.5 11.5s6.83301 4.5 11.5 4.5h128c4.66699 0 8.5 -1.5 11.5 -4.5s4.5 -6.83301 4.5 -11.5v-32c0 -4.66699 -1.5 -8.5 -4.5 -11.5s-6.83301 -4.5 -11.5 -4.5h-32v-34
c37.333 -6 70.666 -21 99.999 -45l24 25c3.33301 2.66699 7.16602 4 11.499 4s8.16602 -1.33301 11.499 -4l23 -23c2.66699 -3.33301 4 -7.16602 4 -11.499s-1.33301 -8.16602 -4 -11.499l-27 -26zM204.001 69.9961l-48.9961 0.00195312c2 13.333 11 30.666 27 51.999
c9.33301 12.667 15.666 21.667 18.999 27s6.66602 12.833 9.99902 22.5s5 20.167 5 31.5c0 40.667 -18.667 61 -56 61s-56 -20 -56 -60v-4c0 -5.33301 2.66699 -8 8 -8h25c5.33301 0 8.33301 2.66699 9 8v5c0 15.333 4 23 12 23c5.33301 0 8.66602 -1.83301 9.99902 -5.5
s2 -10.167 2 -19.5c0 -11.333 -1.5 -20.333 -4.5 -27s-10.5 -18.334 -22.5 -35.001c-12.667 -18 -21.834 -33.5 -27.501 -46.5s-9.16699 -27.833 -10.5 -44.5v-2c0 -4 1.66699 -7.66699 5 -11s7 -5 11 -5h1h82c6 0 9 2.66699 9 8v22c0 5.33301 -3 8 -9 8zM344.005 95.998
v107c0 19.333 -4.66699 34.333 -14 45s-23.333 16 -42 16c-37.333 0 -56 -21 -56 -63v-106c0 -42 18.333 -63 55 -63c38 0 57 21.333 57 64zM288.005 225.998c8.66699 0 13 -6.33301 13 -19v-116c0 -14 -4.33301 -21 -13 -21s-13 6.66699 -13 20v116
c0 13.333 4.33301 20 13 20z" />
    <glyph glyph-name="store-alt-slash" unicode="&#xe070;" horiz-adv-x="640" 
d="M18 324l88 -68h-74c-12.667 0 -22 5.66699 -28 17s-5.33301 22.333 2 33zM576 35l58 -45c4 -3.33301 6 -7.66602 6 -12.999c0 -3.33301 -1 -6.66602 -3 -9.99902l-20 -25c-3.33301 -4 -7.66602 -6 -12.999 -6c-3.33301 0 -6.33301 1 -9 3l-589 455
c-4 3.33301 -6 7.66602 -6 12.999c0 3.33301 1 6.66602 3 9.99902l20 25c3.33301 4 7.66602 6 12.999 6c3.33301 0 6.33301 -1 9 -3l35 -27l11 16c6 9.33301 14.667 14 26 14h406c11.333 0 20 -4.66699 26 -14l86 -128c6.66699 -10.667 7 -21.667 1 -33s-15.333 -17 -28 -17
h-318l41 -32h53v-41l128 -99v140h64v-189zM320 64v27l64 -50v-73c0 -8.66699 -3.16699 -16.167 -9.5 -22.5s-13.833 -9.5 -22.5 -9.5h-256c-8.66699 0 -16.167 3.16699 -22.5 9.5s-9.5 13.833 -9.5 22.5v256h64v-160h192z" />
    <glyph glyph-name="store-slash" unicode="&#xe071;" horiz-adv-x="640" 
d="M122 64h226.001l158 -128h-415c-8 0 -15 3.16699 -21 9.5s-9 13.833 -9 22.5v197c4.66699 -2 9.66699 -3.33301 15 -4c6 -0.666992 12 -1 18 -1c9.33301 0 18.666 1.33301 27.999 4v-100zM94.001 192l-1 -0.000976562c-4 0 -8.33301 0.333008 -13 1
c-28.667 4 -49 20.833 -61 50.5s-10.333 57.834 5 84.501l134 -109c-18.667 -18 -40 -27 -64 -27zM602.001 -10.001c4 -3.33301 6.00098 -7.66602 6.00098 -12.999c0 -3.33301 -1 -6.66602 -3 -9.99902l-19 -25c-2.66699 -4 -6.66699 -6 -12 -6c-3.33301 0 -6.33301 1 -9 3
l-559 455c-4 3.33301 -6 7.66602 -6 12.999c0 3.33301 1 6.66602 3 9.99902l19 25c2.66699 4 6.66699 6 12 6c3.33301 0 6.33301 -1 9 -3l34 -28l9 16c6 10 14.667 15 26 15h384c11.333 0 20 -5 26 -15l61 -104c16.667 -26.667 19 -55 7 -85s-33 -47 -63 -51
c-4 -0.666992 -8.33301 -1 -13 -1c-28 0 -51.333 11 -70 33c-18.667 -22 -42 -33 -70 -33c-8.66699 0 -17 1.33301 -25 4l137 -112v80c9.33301 -2.66699 18.666 -4 27.999 -4c6 0 12 0.333008 18 1c5.33301 0.666992 10.333 2 15 4v-130z" />
    <glyph glyph-name="toilet-paper-slash" unicode="&#xe072;" horiz-adv-x="640" 
d="M64 256c0 10 0.331055 20.667 0.998047 32l316 -245c-2.66699 -20.667 -10 -49 -22 -85c-4.66699 -14.667 -14.667 -22 -30 -22h-281c-4.66699 0 -8.5 1.5 -11.5 4.5s-4.5 6.83301 -4.5 11.5c0 2 0.333008 3.66699 1 5l9.5 28c4.33301 12.667 7 21 8 25
s2.83301 10.167 5.5 18.5s4.33398 14.666 5.00098 18.999s1.33398 9.83301 2.00098 16.5s1 13.334 1 20.001v172zM633.998 -10c4 -3.33301 6 -7.66602 6 -12.999c0 -3.33301 -1 -6.66602 -3 -9.99902l-20 -25c-3.33301 -4 -7.66602 -6 -12.999 -6
c-3.33301 0 -6.33301 1 -9 3l-589 455c-4 3.33301 -6 7.66602 -6 12.999c0 3.33301 1 6.66602 3 9.99902l20 25c3.33301 4 7.66602 6 12.999 6c3.33301 0 6.33301 -1 9 -3l54 -42c17.333 30 37.666 45 60.999 45h284c-18.667 -19.333 -33.334 -45.833 -44.001 -79.5
s-16 -71.167 -16 -112.5v-73l50 -39c-12 34 -18 71.333 -18 112c0 53.333 9.33301 98.666 28 135.999s41.334 56 68.001 56s49.334 -18.667 68.001 -56s28 -82.666 28 -135.999c0 -46 -7.16699 -86.333 -21.5 -121s-32.5 -56.667 -54.5 -66zM511.998 192
c8.66699 0 16.167 6.16699 22.5 18.5s9.5 27.5 9.5 45.5s-3.16699 33.167 -9.5 45.5s-13.833 18.5 -22.5 18.5s-16.167 -6.16699 -22.5 -18.5s-9.5 -27.5 -9.5 -45.5s3.16699 -33.167 9.5 -45.5s13.833 -18.5 22.5 -18.5z" />
    <glyph glyph-name="users-slash" unicode="&#xe073;" horiz-adv-x="640" 
d="M133 236c-11.333 -8 -23.667 -11.999 -37 -11.999c-18 0 -33.167 6.16699 -45.5 18.5s-18.5 27.5 -18.5 45.5c0 7.33301 1.33301 14.666 4 21.999zM172.999 173.001c-20 -10.667 -36.668 -25.668 -50.001 -45.001s-21.666 -40.666 -24.999 -63.999h-66
c-8.66699 0 -16.167 3.16699 -22.5 9.5s-9.5 13.833 -9.5 22.5v32c0 17.333 6.33301 32.333 19 45s27.667 19 45 19h64c17.333 0 32.333 -6.33301 45 -19zM543.998 224c-17.333 0 -32.333 6.33301 -45 19s-19 27.667 -19 45s6.33301 32.333 19 45s27.667 19 45 19
s32.333 -6.33301 45 -19s19 -27.667 19 -45s-6.33301 -32.333 -19 -45s-27.667 -19 -45 -19zM500.998 93l132.999 -102.999c4 -3.33301 6 -7.66602 6 -12.999c0 -3.33301 -1 -6.66602 -3 -9.99902l-20 -25c-3.33301 -4 -7.66602 -6 -12.999 -6c-3.33301 0 -6.33301 1 -9 3
l-589 455c-4 3.33301 -6 7.66602 -6 12.999c0 3.33301 1 6.66602 3 9.99902l20 25c3.33301 4 7.66602 6 12.999 6c3.33301 0 6.33301 -1 9 -3l164 -127c4 28 16.333 51.333 37 70s45.334 28 74.001 28c30.667 0 57 -11 79 -33s33 -48.333 33 -79
c0 -23.333 -6.5 -44.333 -19.5 -63s-30.167 -32 -51.5 -40l55 -43c18.667 -3.33301 35.5 -10.833 50.5 -22.5s26.5 -25.834 34.5 -42.501zM127.997 45.001c0 29.333 9.99902 55.001 29.999 77.001s44.667 34.333 74 37l245 -189c-4.66699 -1.33301 -9 -2 -13 -2h-288
c-13.333 0 -24.666 4.66699 -33.999 14s-14 20.666 -14 33.999v29zM575.996 192.002c17.333 0 32.332 -6.33203 44.999 -18.999s19 -27.667 19 -45v-32c0 -8.66699 -3.16699 -16.167 -9.5 -22.5s-13.833 -9.5 -22.5 -9.5h-66c-3.33301 23.333 -11.666 44.666 -24.999 63.999
s-30 34.333 -50 45c12.667 12.667 27.667 19 45 19h64z" />
    <glyph glyph-name="virus" unicode="&#xe074;" 
d="M484 220c8 0 14.833 -2.66699 20.5 -8s8.5 -12 8.5 -20s-2.83301 -14.667 -8.5 -20s-12.5 -8 -20.5 -8h-22c-25.333 0 -42.833 -11.833 -52.5 -35.5s-5.5 -44.5 12.5 -62.5l15 -15c5.33301 -5.33301 8 -11.666 8 -18.999c0 -8 -2.83301 -14.833 -8.5 -20.5
s-12.5 -8.5 -20.5 -8.5c-7.33301 0 -13.666 2.66699 -18.999 8l-15 15c-18 18 -38.833 22.167 -62.5 12.5s-35.5 -27.167 -35.5 -52.5v-22c0 -7.33301 -2.66699 -13.833 -8 -19.5s-12 -8.5 -20 -8.5s-14.667 2.83301 -20 8.5s-8 12.167 -8 19.5v22
c0 25.333 -11.833 42.833 -35.5 52.5s-44.5 5.5 -62.5 -12.5l-15 -15c-5.33301 -5.33301 -11.666 -8 -18.999 -8c-8 0 -14.833 2.83301 -20.5 8.5s-8.5 12.5 -8.5 20.5c0 7.33301 2.66699 13.666 8 18.999l15 15c18 18 22.167 38.833 12.5 62.5s-27.167 35.5 -52.5 35.5h-22
c-8 0 -14.833 2.66699 -20.5 8s-8.5 12 -8.5 20s2.83301 14.667 8.5 20s12.5 8 20.5 8h22c25.333 0 42.833 11.833 52.5 35.5s5.5 44.5 -12.5 62.5l-15 15c-5.33301 5.33301 -8 11.666 -8 18.999c0 8 2.83301 14.833 8.5 20.5s12.5 8.5 20.5 8.5
c7.33301 0 13.666 -2.66699 18.999 -8l15 -15c18 -18 38.833 -22.167 62.5 -12.5s35.5 27.167 35.5 52.5v22c0 7.33301 2.66699 13.833 8 19.5s12 8.5 20 8.5s14.667 -2.83301 20 -8.5s8 -12.167 8 -19.5v-22c0 -25.333 11.833 -42.833 35.5 -52.5s44.5 -5.5 62.5 12.5
l15 15c5.33301 5.33301 11.666 8 18.999 8c8 0 14.833 -2.83301 20.5 -8.5s8.5 -12.5 8.5 -20.5c0 -7.33301 -2.66699 -13.666 -8 -18.999l-15 -15c-18 -18 -22.167 -38.833 -12.5 -62.5s27.167 -35.5 52.5 -35.5h22zM224 176c13.333 0 24.666 4.66699 33.999 14
s14 20.666 14 33.999s-4.66699 24.666 -14 33.999s-20.666 14 -33.999 14s-24.666 -4.66699 -33.999 -14s-14 -20.666 -14 -33.999s4.66699 -24.666 14 -33.999s20.666 -14 33.999 -14zM304 120c6.66699 0 12.334 2.33301 17.001 7s7 10.334 7 17.001
s-2.33301 12.334 -7 17.001s-10.334 7 -17.001 7s-12.334 -2.33301 -17.001 -7s-7 -10.334 -7 -17.001s2.33301 -12.334 7 -17.001s10.334 -7 17.001 -7z" />
    <glyph glyph-name="virus-slash" unicode="&#xe075;" horiz-adv-x="640" 
d="M114 220c10 0.666992 19.332 3.33301 27.999 8l245 -189c-11.333 -4 -20.666 -10.667 -27.999 -20s-11 -20.333 -11 -33v-22c0 -7.33301 -2.66699 -13.833 -8 -19.5s-12 -8.5 -20 -8.5s-14.667 2.83301 -20 8.5s-8 12.167 -8 19.5v22c0 25.333 -11.833 42.833 -35.5 52.5
s-44.5 5.5 -62.5 -12.5l-15 -15l-1 -1v-1c-6 -5.33301 -13 -7.83301 -21 -7.5s-14.667 3.5 -20 9.5s-7.83301 12.833 -7.5 20.5s3.5 14.167 9.5 19.5l15 15c18 18 22.167 38.833 12.5 62.5s-27.167 35.5 -52.5 35.5h-22c-7.33301 0 -13.833 2.66699 -19.5 8s-8.5 12 -8.5 20
s2.83301 14.667 8.5 20s12.167 8 19.5 8h22zM616.999 -58.001c-2.66699 -3.33301 -6.16699 -5.33398 -10.5 -6.00098s-8.16602 0.333008 -11.499 3l-589 455c-8 6.66699 -9 14 -3 22l20 26c6.66699 8 14.334 9 23.001 3l93 -73c5.33301 6 12 9 20 9s14.667 -2.66699 20 -8
l15 -15c18 -18 38.833 -22.167 62.5 -12.5s35.5 27.167 35.5 52.5v22c0 7.33301 2.66699 13.833 8 19.5s12 8.5 20 8.5s14.667 -2.83301 20 -8.5s8 -12.167 8 -19.5v-22c0 -25.333 11.833 -42.833 35.5 -52.5s44.5 -5.5 62.5 12.5l15 15c5.33301 4.66699 11.666 7 18.999 7
s13.666 -2.33301 18.999 -7c6 -5.33301 9.16699 -12 9.5 -20s-2.16699 -14.667 -7.5 -20l-15 -16c-18 -17.333 -22.167 -37.833 -12.5 -61.5s27.167 -35.5 52.5 -35.5h22c7.33301 0 13.833 -2.66699 19.5 -8s8.5 -12 8.5 -20s-2.83301 -14.667 -8.5 -20s-12.167 -8 -19.5 -8
h-22c-14.667 0 -27 -4.66699 -37 -14s-16 -20.666 -18 -33.999l163 -126c8 -6.66699 9 -14 3 -22zM334.999 219.998c0 0.666992 0.165039 1.33301 0.498047 2s0.5 1.33398 0.5 2.00098c0 13.333 -4.66699 24.666 -14 33.999s-20.666 14 -33.999 14
c-5.33301 0 -10.666 -1 -15.999 -3z" />
    <glyph glyph-name="viruses" unicode="&#xe076;" horiz-adv-x="640" 
d="M624 96c4.66699 0 8.5 -1.5 11.5 -4.5s4.5 -6.83301 4.5 -11.5s-1.5 -8.5 -4.5 -11.5s-6.83301 -4.5 -11.5 -4.5h-12c-14.667 0 -24.667 -6.66699 -30 -20s-3 -25 7 -35l9 -8c3.33301 -3.33301 5 -7.16602 5 -11.499s-1.66699 -8.16602 -5 -11.499
s-7.16602 -5 -11.499 -5s-8.16602 1.66699 -11.499 5l-8 9c-10 10 -21.667 12.333 -35 7s-20 -15.333 -20 -30v-12c0 -4.66699 -1.5 -8.5 -4.5 -11.5s-6.83301 -4.5 -11.5 -4.5s-8.5 1.5 -11.5 4.5s-4.5 6.83301 -4.5 11.5v12c0 14.667 -6.66699 24.667 -20 30s-25 3 -35 -7
l-8 -9c-3.33301 -3.33301 -7.16602 -5 -11.499 -5s-8.16602 1.66699 -11.499 5s-5 7.16602 -5 11.499s1.66699 8.16602 5 11.499l9 8c10 10 12.333 21.667 7 35s-15.333 20 -30 20h-12c-4.66699 0 -8.5 1.5 -11.5 4.5s-4.5 6.83301 -4.5 11.5s1.5 8.5 4.5 11.5
s6.83301 4.5 11.5 4.5h12c14.667 0 24.667 6.66699 30 20s3 25 -7 35l-9 8c-3.33301 3.33301 -5 7.16602 -5 11.499s1.66699 8.16602 5 11.499s7.16602 5 11.499 5s8.16602 -1.66699 11.499 -5l8 -9c10 -10 21.667 -12.333 35 -7s20 15.333 20 30v12
c0 4.66699 1.5 8.5 4.5 11.5s6.83301 4.5 11.5 4.5s8.5 -1.5 11.5 -4.5s4.5 -6.83301 4.5 -11.5v-12c0 -14.667 6.66699 -24.667 20 -30s25 -3 35 7l8 9c3.33301 3.33301 7.16602 5 11.499 5s8.16602 -1.66699 11.499 -5s5 -7.16602 5 -11.499s-1.66699 -8.16602 -5 -11.499
l-9 -8c-10 -10 -12.333 -21.667 -7 -35s15.333 -20 30 -20h12zM480 64c8.66699 0 16.167 3.16699 22.5 9.5s9.5 13.833 9.5 22.5s-3.16699 16.167 -9.5 22.5s-13.833 9.5 -22.5 9.5s-16.167 -3.16699 -22.5 -9.5s-9.5 -13.833 -9.5 -22.5s3.16699 -16.167 9.5 -22.5
s13.833 -9.5 22.5 -9.5zM347 235c-19.333 0 -32.666 -8.83301 -39.999 -26.5s-4.33301 -33.167 9 -46.5l12 -12c4 -4 6 -9 6 -15s-2 -11 -6 -15s-9 -6 -15 -6s-11 2 -15 6l-12 12c-13.333 13.333 -28.833 16.333 -46.5 9s-26.5 -20.666 -26.5 -39.999v-16
c0 -5.33301 -2 -10.166 -6 -14.499s-9 -6.5 -15 -6.5s-11 2.16699 -15 6.5s-6 9.16602 -6 14.499v16c0 19.333 -8.83301 32.666 -26.5 39.999s-33.167 4.33301 -46.5 -9l-12 -12c-4 -4 -9 -6 -15 -6s-11 2 -15 6s-6 9 -6 15s2 11 6 15l12 12
c13.333 13.333 16.333 28.833 9 46.5s-20.666 26.5 -39.999 26.5h-16c-5.33301 0 -10.166 2 -14.499 6s-6.5 9 -6.5 15s2.16699 11 6.5 15s9.16602 6 14.499 6h16c19.333 0 32.666 8.83301 39.999 26.5s4.33301 33.167 -9 46.5l-12 12c-4 4 -6 8.83301 -6 14.5
s2.16699 10.667 6.5 15s9.33301 6.5 15 6.5s10.5 -2 14.5 -6l12 -12c13.333 -13.333 28.833 -16.333 46.5 -9s26.5 20.666 26.5 39.999v16c0 5.33301 2 10.166 6 14.499s9 6.5 15 6.5s11 -2.16699 15 -6.5s6 -9.16602 6 -14.499v-16c0 -19.333 8.83301 -32.666 26.5 -39.999
s33.167 -4.33301 46.5 9l12 12c4 4 8.83301 6 14.5 6s10.667 -2.16699 15 -6.5s6.5 -9.33301 6.5 -15s-2 -10.5 -6 -14.5l-12 -12c-13.333 -13.333 -16.333 -28.833 -9 -46.5s20.666 -26.5 39.999 -26.5h16c5.33301 0 10.166 -2 14.499 -6s6.5 -9 6.5 -15
s-2.16699 -11 -6.5 -15s-9.16602 -6 -14.499 -6h-16zM160 256c8.66699 0 16.167 3.16699 22.5 9.5s9.5 13.833 9.5 22.5s-3.16699 16.167 -9.5 22.5s-13.833 9.5 -22.5 9.5s-16.167 -3.16699 -22.5 -9.5s-9.5 -13.833 -9.5 -22.5s3.16699 -16.167 9.5 -22.5
s13.833 -9.5 22.5 -9.5zM240 224c4.66699 0 8.5 1.5 11.5 4.5s4.5 6.83301 4.5 11.5s-1.5 8.5 -4.5 11.5s-6.83301 4.5 -11.5 4.5s-8.5 -1.5 -11.5 -4.5s-4.5 -6.83301 -4.5 -11.5s1.5 -8.5 4.5 -11.5s6.83301 -4.5 11.5 -4.5z" />
    <glyph glyph-name="vest" unicode="&#xe085;" horiz-adv-x="448" 
d="M437 208c7.33301 -10.667 11.002 -22.335 11.002 -35.002v-205c0 -8.66699 -3.16699 -16.167 -9.5 -22.5s-13.833 -9.5 -22.5 -9.5h-192v224l74 221c-23.333 -12.667 -48 -19 -74 -19s-50.667 6.33301 -74 19l57 -170l-13 -41c-1.33301 -3.33301 -2 -6.66602 -2 -9.99902
v-224h-160c-8.66699 0 -16.167 3.16699 -22.5 9.5s-9.5 13.833 -9.5 22.5v205c0 12.667 3.66699 24.334 11 35.001l53 80v128c0 8.66699 3.16699 16.167 9.5 22.5s13.833 9.5 22.5 9.5h32c4.66699 0 9 -1.33301 13 -4l25 -17c17.333 -11.333 36.666 -17 57.999 -17
s40.666 5.66699 57.999 17l25 17c4 2.66699 8.33301 4 13 4h32c8.66699 0 16.167 -3.16699 22.5 -9.5s9.5 -13.833 9.5 -22.5v-128zM131.002 76.999c3.33301 2.66699 5 6.16699 5 10.5s-1.66699 8.16602 -5 11.499s-7.16602 5 -11.499 5s-7.83301 -1.66699 -10.5 -5l-48 -48
c-3.33301 -2.66699 -5 -6.16699 -5 -10.5s1.66699 -8.16602 5 -11.499s7.16602 -5 11.499 -5s7.83301 1.66699 10.5 5zM387.502 28.499c3 3 4.49805 6.83105 4.49805 11.498s-1.66699 8.33398 -5 11.001l-48 48c-2.66699 3.33301 -6.16699 5 -10.5 5
s-8.16602 -1.66699 -11.499 -5s-5 -7.16602 -5 -11.499s1.66699 -7.83301 5 -10.5l48 -48c2.66699 -3.33301 6.33398 -5 11.001 -5s8.5 1.5 11.5 4.5z" />
    <glyph glyph-name="vest-patches" unicode="&#xe086;" horiz-adv-x="448" 
d="M437 208c7.33301 -10.667 11.002 -22.335 11.002 -35.002v-205c0 -8.66699 -3.16699 -16.167 -9.5 -22.5s-13.833 -9.5 -22.5 -9.5h-192v224l74 221c-23.333 -12.667 -48 -19 -74 -19s-50.667 6.33301 -74 19l57 -170l-13 -41c-1.33301 -3.33301 -2 -6.66602 -2 -9.99902
v-224h-160c-8.66699 0 -16.167 3.16699 -22.5 9.5s-9.5 13.833 -9.5 22.5v205c0 12.667 3.66699 24.334 11 35.001l53 80v128c0 8.66699 3.16699 16.167 9.5 22.5s13.833 9.5 22.5 9.5h32c4.66699 0 9 -1.33301 13 -4l25 -17c17.333 -11.333 36.666 -17 57.999 -17
s40.666 5.66699 57.999 17l25 17c4 2.66699 8.33301 4 13 4h32c8.66699 0 16.167 -3.16699 22.5 -9.5s9.5 -13.833 9.5 -22.5v-128zM64.002 175.999l15 -16l-15 -16c-2.66699 -2 -4 -4.66699 -4 -8s1.16699 -6.16602 3.5 -8.49902s5.16602 -3.5 8.49902 -3.5s6 1.33301 8 4
l16 15l16 -15c2 -2.66699 4.66699 -4 8 -4s6.16602 1.16699 8.49902 3.5s3.5 5.16602 3.5 8.49902s-1.33301 6 -4 8l-15 16l15 16c2.66699 2 4 4.66699 4 8s-1.16699 6.16602 -3.5 8.49902s-5.16602 3.5 -8.49902 3.5s-6 -1.33301 -8 -4l-16 -15l-16 15
c-2 2.66699 -4.66699 4 -8 4s-6.16602 -1.16699 -8.49902 -3.5s-3.5 -5.16602 -3.5 -8.49902s1.33301 -6 4 -8zM96.002 -8.00098c11.333 0 20.833 3.83301 28.5 11.5s11.5 17.167 11.5 28.5s-3.83301 20.833 -11.5 28.5s-17.167 11.5 -28.5 11.5
s-20.833 -3.83301 -28.5 -11.5s-11.5 -17.167 -11.5 -28.5s3.83301 -20.833 11.5 -28.5s17.167 -11.5 28.5 -11.5zM359.002 111.999c6.66699 0 12.499 2.5 17.499 7.5s7.5 10.833 7.5 17.5v2c-0.666992 6.66699 -3.5 12 -8.5 16s-10.833 6 -17.5 6h-5v5
c0.666992 6.66699 -1.16602 12.5 -5.49902 17.5s-9.83301 7.83301 -16.5 8.5h-2c-6.66699 0 -12.5 -2.33301 -17.5 -7s-7.5 -10.667 -7.5 -18v-48c0 -4.66699 2.33301 -7 7 -7h48z" />
    <glyph glyph-name="glass-martini" unicode="&#xf000;" 
d="M502 390l-214 -214v-192h56c11.333 0 20.833 -3.83301 28.5 -11.5s11.5 -17.167 11.5 -28.5c0 -5.33301 -2.66699 -8 -8 -8h-240c-5.33301 0 -8 2.66699 -8 8c0 11.333 3.83301 20.833 11.5 28.5s17.167 11.5 28.5 11.5h56v192l-214 214
c-10.667 10.667 -13.167 23 -7.5 37s16.167 21 31.5 21h444c15.333 0 25.833 -7 31.5 -21s3.16699 -26.333 -7.5 -37z" />
    <glyph glyph-name="music" unicode="&#xf001;" 
d="M470 446c3.33301 1.33301 6.66699 2 10 2c8.66699 0 16.167 -3.16699 22.5 -9.5s9.5 -13.833 9.5 -22.5v-352c0 -18 -9.33301 -33.167 -28 -45.5s-41.334 -18.5 -68.001 -18.5s-49.334 6.16699 -68.001 18.5s-28 27.5 -28 45.5s9.33301 33.167 28 45.5
s41.334 18.5 68.001 18.5c10.667 0 21.334 -1.33301 32.001 -4v185l-256 -75v-234c0 -18 -9.33301 -33.167 -28 -45.5s-41.334 -18.5 -68.001 -18.5s-49.334 6.16699 -68.001 18.5s-28 27.5 -28 45.5s9.33301 33.167 28 45.5s41.334 18.5 68.001 18.5
c10.667 0 21.334 -1.33301 32.001 -4v261c0 16 7.33301 26.333 22 31z" />
    <glyph glyph-name="search" unicode="&#xf002;" 
d="M505 5c4.66699 -4.66699 7.00098 -10.333 7.00098 -17s-2.33301 -12.334 -7 -17.001l-28 -28c-4.66699 -4.66699 -10.334 -7 -17.001 -7s-12.334 2.33301 -17.001 7l-100 100c-4.66699 4.66699 -7 10.334 -7 17.001v16c-37.333 -29.333 -80 -44 -128 -44
c-57.333 0 -106.333 20.333 -147 61s-61 89.667 -61 147s20.333 106.333 61 147s89.667 61 147 61s106.333 -20.333 147 -61s61 -89.667 61 -147c0 -48 -14.667 -90.667 -44 -128h16c6.66699 0 12.334 -2.33301 17.001 -7zM208.001 112.001c35.333 0 65.5 12.5 90.5 37.5
s37.5 55.167 37.5 90.5s-12.5 65.5 -37.5 90.5s-55.167 37.5 -90.5 37.5s-65.5 -12.5 -90.5 -37.5s-37.5 -55.167 -37.5 -90.5s12.5 -65.5 37.5 -90.5s55.167 -37.5 90.5 -37.5z" />
    <glyph glyph-name="heart" unicode="&#xf004;" 
d="M462 385c31.333 -26.667 48.002 -60.667 50.002 -102s-11.333 -76.333 -40 -105l-193 -200c-6.66699 -6.66699 -14.334 -10 -23.001 -10s-16.334 3.33301 -23.001 10l-193 200c-28.667 28.667 -42 63.667 -40 105s18.667 75.333 50 102
c27.333 23.333 58.833 33.5 94.5 30.5s66.167 -17.5 91.5 -43.5l20 -20l20 20c25.333 26 55.833 40.5 91.5 43.5s67.167 -7.16699 94.5 -30.5z" />
    <glyph glyph-name="star" unicode="&#xf005;" horiz-adv-x="576" 
d="M259 430c6 12 15.667 18.001 29 18.001s23 -6 29 -18l65 -132l146 -22c13.333 -1.33301 22 -8.33301 26 -21s1.33301 -23.667 -8 -33l-106 -103l25 -146c2 -12.667 -2.33301 -22.834 -13 -30.501s-21.667 -8.5 -33 -2.5l-131 68l-131 -68
c-11.333 -6.66699 -22.333 -6 -33 2s-15 18.333 -13 31l25 146l-106 103c-9.33301 9.33301 -12 20.333 -8 33s12.667 19.667 26 21l146 22z" />
    <glyph glyph-name="user" unicode="&#xf007;" horiz-adv-x="448" 
d="M224 192c-35.333 0 -65.5 12.5 -90.5 37.5s-37.5 55.167 -37.5 90.5s12.5 65.5 37.5 90.5s55.167 37.5 90.5 37.5s65.5 -12.5 90.5 -37.5s37.5 -55.167 37.5 -90.5s-12.5 -65.5 -37.5 -90.5s-55.167 -37.5 -90.5 -37.5zM314 160c36.667 0 68.167 -13.167 94.5 -39.5
s39.5 -57.833 39.5 -94.5v-42c0 -13.333 -4.66699 -24.666 -14 -33.999s-20.666 -14 -33.999 -14h-352c-13.333 0 -24.666 4.66699 -33.999 14s-14 20.666 -14 33.999v42c0 36.667 13.167 68.167 39.5 94.5s57.833 39.5 94.5 39.5h17c23.333 -10.667 47.666 -16 72.999 -16
s49.666 5.33301 72.999 16h17z" />
    <glyph glyph-name="film" unicode="&#xf008;" 
d="M488 384c6.66699 0 12.334 -2.33301 17.001 -7s7 -10.334 7 -17.001v-336c0 -6.66699 -2.33301 -12.334 -7 -17.001s-10.334 -7 -17.001 -7h-8v20c0 8 -4 12 -12 12h-40c-8 0 -12 -4 -12 -12v-20h-320v20c0 8 -4 12 -12 12h-40c-8 0 -12 -4 -12 -12v-20h-8
c-6.66699 0 -12.334 2.33301 -17.001 7s-7 10.334 -7 17.001v336c0 6.66699 2.33301 12.334 7 17.001s10.334 7 17.001 7h8v-20c0 -8 4 -12 12 -12h40c8 0 12 4 12 12v20h320v-20c0 -8 4 -12 12 -12h40c8 0 12 4 12 12v20h8zM96 76v40c0 8 -4 12 -12 12h-40
c-8 0 -12 -4 -12 -12v-40c0 -8 4 -12 12 -12h40c8 0 12 4 12 12zM96 172v40c0 8 -4 12 -12 12h-40c-8 0 -12 -4 -12 -12v-40c0 -8 4 -12 12 -12h40c8 0 12 4 12 12zM96 268v40c0 8 -4 12 -12 12h-40c-8 0 -12 -4 -12 -12v-40c0 -8 4 -12 12 -12h40c8 0 12 4 12 12zM368 60
v96c0 8 -4 12 -12 12h-200c-8 0 -12 -4 -12 -12v-96c0 -8 4 -12 12 -12h200c8 0 12 4 12 12zM368 228v96c0 8 -4 12 -12 12h-200c-8 0 -12 -4 -12 -12v-96c0 -8 4 -12 12 -12h200c8 0 12 4 12 12zM480 76v40c0 8 -4 12 -12 12h-40c-8 0 -12 -4 -12 -12v-40
c0 -8 4 -12 12 -12h40c8 0 12 4 12 12zM480 172v40c0 8 -4 12 -12 12h-40c-8 0 -12 -4 -12 -12v-40c0 -8 4 -12 12 -12h40c8 0 12 4 12 12zM480 268v40c0 8 -4 12 -12 12h-40c-8 0 -12 -4 -12 -12v-40c0 -8 4 -12 12 -12h40c8 0 12 4 12 12z" />
    <glyph glyph-name="th-large" unicode="&#xf009;" 
d="M296 416h192c6.66699 0 12.334 -2.33301 17.001 -7s7 -10.334 7 -17.001v-160c0 -6.66699 -2.33301 -12.334 -7 -17.001s-10.334 -7 -17.001 -7h-192c-6.66699 0 -12.334 2.33301 -17.001 7s-7 10.334 -7 17.001v160c0 6.66699 2.33301 12.334 7 17.001
s10.334 7 17.001 7zM216 416c6.66699 0 12.334 -2.33301 17.001 -7s7 -10.334 7 -17.001v-160c0 -6.66699 -2.33301 -12.334 -7 -17.001s-10.334 -7 -17.001 -7h-192c-6.66699 0 -12.334 2.33301 -17.001 7s-7 10.334 -7 17.001v160c0 6.66699 2.33301 12.334 7 17.001
s10.334 7 17.001 7h192zM0 152c0 6.66699 2.33301 12.334 7 17.001s10.334 7 17.001 7h192c6.66699 0 12.334 -2.33301 17.001 -7s7 -10.334 7 -17.001v-160c0 -6.66699 -2.33301 -12.334 -7 -17.001s-10.334 -7 -17.001 -7h-192c-6.66699 0 -12.334 2.33301 -17.001 7
s-7 10.334 -7 17.001v160zM296 -32c-6.66699 0 -12.334 2.33301 -17.001 7s-7 10.334 -7 17.001v160c0 6.66699 2.33301 12.334 7 17.001s10.334 7 17.001 7h192c6.66699 0 12.334 -2.33301 17.001 -7s7 -10.334 7 -17.001v-160c0 -6.66699 -2.33301 -12.334 -7 -17.001
s-10.334 -7 -17.001 -7h-192z" />
    <glyph glyph-name="th" unicode="&#xf00a;" 
d="M149 392v-80c0 -6.66699 -2.33301 -12.334 -7 -17.001s-10.334 -7 -17.001 -7h-101c-6.66699 0 -12.334 2.33301 -17.001 7s-7 10.334 -7 17.001v80c0 6.66699 2.33301 12.334 7 17.001s10.334 7 17.001 7h101c6.66699 0 12.334 -2.33301 17.001 -7s7 -10.334 7 -17.001z
M331 152c0 -6.66699 -2.33301 -12.334 -7 -17.001s-10.334 -7 -17.001 -7h-102c-6.66699 0 -12.334 2.33301 -17.001 7s-7 10.334 -7 17.001v80c0 6.66699 2.33301 12.334 7 17.001s10.334 7 17.001 7h102c6.66699 0 12.334 -2.33301 17.001 -7s7 -10.334 7 -17.001v-80z
M363 392c0 6.66699 2.33301 12.334 7 17.001s10.334 7 17.001 7h101c6.66699 0 12.334 -2.33301 17.001 -7s7 -10.334 7 -17.001v-80c0 -6.66699 -2.33301 -12.334 -7 -17.001s-10.334 -7 -17.001 -7h-101c-6.66699 0 -12.334 2.33301 -17.001 7s-7 10.334 -7 17.001v80z
M331 312c0 -6.66699 -2.33301 -12.334 -7 -17.001s-10.334 -7 -17.001 -7h-102c-6.66699 0 -12.334 2.33301 -17.001 7s-7 10.334 -7 17.001v80c0 6.66699 2.33301 12.334 7 17.001s10.334 7 17.001 7h102c6.66699 0 12.334 -2.33301 17.001 -7s7 -10.334 7 -17.001v-80z
M125 256c6.66699 0 12.334 -2.33301 17.001 -7s7 -10.334 7 -17.001v-80c0 -6.66699 -2.33301 -12.334 -7 -17.001s-10.334 -7 -17.001 -7h-101c-6.66699 0 -12.334 2.33301 -17.001 7s-7 10.334 -7 17.001v80c0 6.66699 2.33301 12.334 7 17.001s10.334 7 17.001 7h101z
M0 72c0 6.66699 2.33301 12.334 7 17.001s10.334 7 17.001 7h101c6.66699 0 12.334 -2.33301 17.001 -7s7 -10.334 7 -17.001v-80c0 -6.66699 -2.33301 -12.334 -7 -17.001s-10.334 -7 -17.001 -7h-101c-6.66699 0 -12.334 2.33301 -17.001 7s-7 10.334 -7 17.001v80z
M387 128c-6.66699 0 -12.334 2.33301 -17.001 7s-7 10.334 -7 17.001v80c0 6.66699 2.33301 12.334 7 17.001s10.334 7 17.001 7h101c6.66699 0 12.334 -2.33301 17.001 -7s7 -10.334 7 -17.001v-80c0 -6.66699 -2.33301 -12.334 -7 -17.001s-10.334 -7 -17.001 -7h-101z
M387 -32c-6.66699 0 -12.334 2.33301 -17.001 7s-7 10.334 -7 17.001v80c0 6.66699 2.33301 12.334 7 17.001s10.334 7 17.001 7h101c6.66699 0 12.334 -2.33301 17.001 -7s7 -10.334 7 -17.001v-80c0 -6.66699 -2.33301 -12.334 -7 -17.001s-10.334 -7 -17.001 -7h-101z
M181 72c0 6.66699 2.33301 12.334 7 17.001s10.334 7 17.001 7h102c6.66699 0 12.334 -2.33301 17.001 -7s7 -10.334 7 -17.001v-80c0 -6.66699 -2.33301 -12.334 -7 -17.001s-10.334 -7 -17.001 -7h-102c-6.66699 0 -12.334 2.33301 -17.001 7s-7 10.334 -7 17.001v80z" />
    <glyph glyph-name="th-list" unicode="&#xf00b;" 
d="M149 232v-80c0 -6.66699 -2.33301 -12.334 -7 -17.001s-10.334 -7 -17.001 -7h-101c-6.66699 0 -12.334 2.33301 -17.001 7s-7 10.334 -7 17.001v80c0 6.66699 2.33301 12.334 7 17.001s10.334 7 17.001 7h101c6.66699 0 12.334 -2.33301 17.001 -7s7 -10.334 7 -17.001z
M0 72c0 6.66699 2.33301 12.334 7 17.001s10.334 7 17.001 7h101c6.66699 0 12.334 -2.33301 17.001 -7s7 -10.334 7 -17.001v-80c0 -6.66699 -2.33301 -12.334 -7 -17.001s-10.334 -7 -17.001 -7h-101c-6.66699 0 -12.334 2.33301 -17.001 7s-7 10.334 -7 17.001v80z
M125 416c6.66699 0 12.334 -2.33301 17.001 -7s7 -10.334 7 -17.001v-80c0 -6.66699 -2.33301 -12.334 -7 -17.001s-10.334 -7 -17.001 -7h-101c-6.66699 0 -12.334 2.33301 -17.001 7s-7 10.334 -7 17.001v80c0 6.66699 2.33301 12.334 7 17.001s10.334 7 17.001 7h101z
M205 -32c-6.66699 0 -12.334 2.33301 -17.001 7s-7 10.334 -7 17.001v80c0 6.66699 2.33301 12.334 7 17.001s10.334 7 17.001 7h283c6.66699 0 12.334 -2.33301 17.001 -7s7 -10.334 7 -17.001v-80c0 -6.66699 -2.33301 -12.334 -7 -17.001s-10.334 -7 -17.001 -7h-283z
M181 392c0 6.66699 2.33301 12.334 7 17.001s10.334 7 17.001 7h283c6.66699 0 12.334 -2.33301 17.001 -7s7 -10.334 7 -17.001v-80c0 -6.66699 -2.33301 -12.334 -7 -17.001s-10.334 -7 -17.001 -7h-283c-6.66699 0 -12.334 2.33301 -17.001 7s-7 10.334 -7 17.001v80z
M205 128c-6.66699 0 -12.334 2.33301 -17.001 7s-7 10.334 -7 17.001v80c0 6.66699 2.33301 12.334 7 17.001s10.334 7 17.001 7h283c6.66699 0 12.334 -2.33301 17.001 -7s7 -10.334 7 -17.001v-80c0 -6.66699 -2.33301 -12.334 -7 -17.001s-10.334 -7 -17.001 -7h-283z
" />
    <glyph glyph-name="check" unicode="&#xf00c;" 
d="M174 9l-167 166c-4.66699 4.66699 -7 10.667 -7 18s2.33301 13.333 7 18l37 36c4.66699 5.33301 10.5 8 17.5 8s13.167 -2.66699 18.5 -8l112 -112l240 240c5.33301 5.33301 11.5 8 18.5 8s12.833 -2.66699 17.5 -8l37 -36c4.66699 -4.66699 7 -10.667 7 -18
s-2.33301 -13.333 -7 -18l-295 -294c-4.66699 -5.33301 -10.667 -8 -18 -8s-13.333 2.66699 -18 8z" />
    <glyph glyph-name="times" unicode="&#xf00d;" horiz-adv-x="352" 
d="M243 192l100 -100c6 -6 9 -13.333 9 -22s-3 -16.334 -9 -23.001l-22 -22c-6.66699 -6 -14.334 -9 -23.001 -9s-16 3 -22 9l-100 100l-100 -100c-6 -6 -13.333 -9 -22 -9s-16.334 3 -23.001 9l-22 22c-6 6.66699 -9 14.334 -9 23.001s3 16 9 22l100 100l-100 100
c-6 6 -9 13.333 -9 22s3 16.334 9 23.001l22 22c6.66699 6 14.334 9 23.001 9s16 -3 22 -9l100 -100l100 100c6 6 13.333 9 22 9s16.334 -3 23.001 -9l22 -22c6 -6.66699 9 -14.334 9 -23.001s-3 -16 -9 -22z" />
    <glyph glyph-name="search-plus" unicode="&#xf00e;" 
d="M304 256v-32c0 -8 -4 -12 -12 -12h-56v-56c0 -8 -4 -12 -12 -12h-32c-8 0 -12 4 -12 12v56h-56c-8 0 -12 4 -12 12v32c0 8 4 12 12 12h56v56c0 8 4 12 12 12h32c8 0 12 -4 12 -12v-56h56c8 0 12 -4 12 -12zM505 -29l-27.999 -27.999
c-4.66699 -4.66699 -10.334 -7 -17.001 -7s-12.334 2.33301 -17.001 7l-100 100c-4.66699 4.66699 -7 10.334 -7 17.001v16c-37.333 -29.333 -80 -44 -128 -44c-57.333 0 -106.333 20.333 -147 61s-61 89.667 -61 147s20.333 106.333 61 147s89.667 61 147 61
s106.333 -20.333 147 -61s61 -89.667 61 -147c0 -48 -14.667 -90.667 -44 -128h16c6.66699 0 12.334 -2.33301 17.001 -7l100 -100c4.66699 -4.66699 7 -10.334 7 -17.001s-2.33301 -12.334 -7 -17.001zM344.001 240.001c0 37.333 -13.333 69.333 -40 96s-58.667 40 -96 40
s-69.333 -13.333 -96 -40s-40 -58.667 -40 -96s13.333 -69.333 40 -96s58.667 -40 96 -40s69.333 13.333 96 40s40 58.667 40 96z" />
    <glyph glyph-name="search-minus" unicode="&#xf010;" 
d="M304 256v-32c0 -8 -4 -12 -12 -12h-168c-8 0 -12 4 -12 12v32c0 8 4 12 12 12h168c8 0 12 -4 12 -12zM505 -29l-27.999 -27.999c-4.66699 -4.66699 -10.334 -7 -17.001 -7s-12.334 2.33301 -17.001 7l-100 100c-4.66699 4.66699 -7 10.334 -7 17.001v16
c-37.333 -29.333 -80 -44 -128 -44c-57.333 0 -106.333 20.333 -147 61s-61 89.667 -61 147s20.333 106.333 61 147s89.667 61 147 61s106.333 -20.333 147 -61s61 -89.667 61 -147c0 -48 -14.667 -90.667 -44 -128h16c6.66699 0 12.334 -2.33301 17.001 -7l100 -100
c4.66699 -4.66699 7 -10.334 7 -17.001s-2.33301 -12.334 -7 -17.001zM344.001 240.001c0 37.333 -13.333 69.333 -40 96s-58.667 40 -96 40s-69.333 -13.333 -96 -40s-40 -58.667 -40 -96s13.333 -69.333 40 -96s58.667 -40 96 -40s69.333 13.333 96 40s40 58.667 40 96z
" />
    <glyph glyph-name="power-off" unicode="&#xf011;" 
d="M400 394c32 -22.667 57.3291 -51.832 75.9961 -87.499s28 -73.834 28 -114.501c0 -68.667 -24.167 -127.167 -72.5 -175.5s-106.666 -72.5 -174.999 -72.5s-126.833 24.167 -175.5 72.5s-73 106.833 -73 175.5c0 40.667 9.33301 78.667 28 114s44 64.666 76 87.999
c6 4 12.5 5.16699 19.5 3.5s12.167 -5.5 15.5 -11.5l16 -28c2.66699 -5.33301 3.33398 -11 2.00098 -17s-4.33301 -10.667 -9 -14c-21.333 -16 -38 -35.667 -50 -59s-18 -48.666 -18 -75.999c0 -46 16.333 -85.5 49 -118.5s72.334 -49.5 119.001 -49.5
c46 0 85.5 16.333 118.5 49s49.5 72.667 49.5 120c0 26 -6 50.833 -18 74.5s-28.667 43.5 -50 59.5c-4.66699 3.33301 -7.66699 8 -9 14s-0.666016 11.667 2.00098 17l16 28c3.33301 6 8.5 9.83301 15.5 11.5s13.5 0.5 19.5 -3.5zM295.996 184.002
c0 -6.66699 -2.33301 -12.334 -7 -17.001s-10.334 -7 -17.001 -7h-32c-6.66699 0 -12.334 2.33301 -17.001 7s-7 10.334 -7 17.001v240c0 6.66699 2.33301 12.334 7 17.001s10.334 7 17.001 7h32c6.66699 0 12.334 -2.33301 17.001 -7s7 -10.334 7 -17.001v-240z" />
    <glyph glyph-name="signal" unicode="&#xf012;" horiz-adv-x="640" 
d="M216 160c4.66699 0 8.5 -1.5 11.5 -4.5s4.5 -6.83301 4.5 -11.5v-192c0 -4.66699 -1.5 -8.5 -4.5 -11.5s-6.83301 -4.5 -11.5 -4.5h-48c-4.66699 0 -8.5 1.5 -11.5 4.5s-4.5 6.83301 -4.5 11.5v192c0 4.66699 1.5 8.5 4.5 11.5s6.83301 4.5 11.5 4.5h48zM88 64
c4.66699 0 8.5 -1.5 11.5 -4.5s4.5 -6.83301 4.5 -11.5v-96c0 -4.66699 -1.5 -8.5 -4.5 -11.5s-6.83301 -4.5 -11.5 -4.5h-48c-4.66699 0 -8.5 1.5 -11.5 4.5s-4.5 6.83301 -4.5 11.5v96c0 4.66699 1.5 8.5 4.5 11.5s6.83301 4.5 11.5 4.5h48zM344 256
c4.66699 0 8.5 -1.5 11.5 -4.5s4.5 -6.83301 4.5 -11.5v-288c0 -4.66699 -1.5 -8.5 -4.5 -11.5s-6.83301 -4.5 -11.5 -4.5h-48c-4.66699 0 -8.5 1.5 -11.5 4.5s-4.5 6.83301 -4.5 11.5v288c0 4.66699 1.5 8.5 4.5 11.5s6.83301 4.5 11.5 4.5h48zM472 352
c4.66699 0 8.5 -1.5 11.5 -4.5s4.5 -6.83301 4.5 -11.5v-384c0 -4.66699 -1.5 -8.5 -4.5 -11.5s-6.83301 -4.5 -11.5 -4.5h-48c-4.66699 0 -8.5 1.5 -11.5 4.5s-4.5 6.83301 -4.5 11.5v384c0 4.66699 1.5 8.5 4.5 11.5s6.83301 4.5 11.5 4.5h48zM600 448
c4.66699 0 8.5 -1.5 11.5 -4.5s4.5 -6.83301 4.5 -11.5v-480c0 -4.66699 -1.5 -8.5 -4.5 -11.5s-6.83301 -4.5 -11.5 -4.5h-48c-4.66699 0 -8.5 1.5 -11.5 4.5s-4.5 6.83301 -4.5 11.5v480c0 4.66699 1.5 8.5 4.5 11.5s6.83301 4.5 11.5 4.5h48z" />
    <glyph glyph-name="cog" unicode="&#xf013;" 
d="M487 132c6 -2.66699 7.99902 -7.33496 5.99902 -14.002c-11.333 -35.333 -29.666 -66.666 -54.999 -93.999c-4 -4.66699 -8.66699 -5.66699 -14 -3l-43 25c-18 -15.333 -38.333 -27 -61 -35v-49c0 -6.66699 -3 -10.667 -9 -12c-36.667 -8 -73 -8 -109 0
c-6.66699 1.33301 -10 5.33301 -10 12v49c-22.667 8 -43 19.667 -61 35l-42 -25c-6 -2.66699 -11 -1.66699 -15 3c-25.333 27.333 -43.666 58.666 -54.999 93.999c-2 6 0 10.667 6 14l42 25c-2 11.333 -3 23 -3 35s1 23.667 3 35l-42 25c-6 2.66699 -8 7.33398 -6 14.001
c11.333 35.333 29.666 66.666 54.999 93.999c4 4.66699 9 5.33398 15 2.00098l42 -24c18 15.333 38.333 27 61 35v49c0 6.66699 3 10.667 9 12c36.667 8 73.334 8 110.001 0c6 -1.33301 9 -5.33301 9 -12v-49c22.667 -8 43 -19.667 61 -35l42 25c6 2.66699 11 1.66699 15 -3
c25.333 -27.333 43.666 -58.666 54.999 -93.999c2 -6.66699 0 -11.334 -6 -14.001l-42 -25c4 -23.333 4 -46.666 0 -69.999zM255.999 111.999c22 0 40.833 7.83301 56.5 23.5s23.5 34.5 23.5 56.5s-7.83301 40.833 -23.5 56.5s-34.5 23.5 -56.5 23.5
s-40.833 -7.83301 -56.5 -23.5s-23.5 -34.5 -23.5 -56.5s7.83301 -40.833 23.5 -56.5s34.5 -23.5 56.5 -23.5z" />
    <glyph glyph-name="home" unicode="&#xf015;" horiz-adv-x="576" 
d="M280 300c2.66699 1.33301 5.33203 2 7.99902 2s5.33398 -0.666992 8.00098 -2l184 -152v-164c0 -4.66699 -1.5 -8.5 -4.5 -11.5s-6.83301 -4.5 -11.5 -4.5h-112c-4.66699 0 -8.5 1.66699 -11.5 5s-4.5 7 -4.5 11v96c0 4.66699 -1.5 8.5 -4.5 11.5s-6.83301 4.5 -11.5 4.5
h-64c-4.66699 0 -8.5 -1.5 -11.5 -4.5s-4.5 -6.83301 -4.5 -11.5v-96c0 -4 -1.5 -7.66699 -4.5 -11s-6.83301 -5 -11.5 -5h-112c-4.66699 0 -8.5 1.5 -11.5 4.5s-4.5 6.83301 -4.5 11.5v164zM571.998 197c2.66699 -2.66699 4.00488 -6 4.00488 -10c0 -2.66699 -1 -5 -3 -7
l-25 -31c-2.66699 -3.33301 -5.66699 -5 -9 -5s-6 1 -8 3l-235 194c-2.66699 1.33301 -5.33398 2 -8.00098 2s-5.33398 -0.666992 -8.00098 -2l-235 -194c-2 -2 -4.33301 -3 -7 -3c-4 0 -7.33301 1.66699 -10 5l-25 31c-2 2 -3 4.33301 -3 7c0 4 1.33301 7.33301 4 10
l253 208c9.33301 7.33301 19.666 11 30.999 11s21.333 -3.66699 30 -11l90 -74v73c0 3.33301 1.16699 6.16602 3.5 8.49902s5.16602 3.5 8.49902 3.5h56c3.33301 0 6.16602 -1.16699 8.49902 -3.5s3.5 -5.16602 3.5 -8.49902v-139z" />
    <glyph glyph-name="clock" unicode="&#xf017;" 
d="M256 440c68.667 0 127.167 -24.167 175.5 -72.5s72.5 -106.833 72.5 -175.5s-24.167 -127.167 -72.5 -175.5s-106.833 -72.5 -175.5 -72.5s-127.167 24.167 -175.5 72.5s-72.5 106.833 -72.5 175.5s24.167 127.167 72.5 175.5s106.833 72.5 175.5 72.5zM348 127
c2.66699 2.66699 4 6.00098 4 10.001c0 5.33301 -2 9.66602 -6 12.999l-58 42v144c0 4.66699 -1.5 8.5 -4.5 11.5s-6.83301 4.5 -11.5 4.5h-32c-4.66699 0 -8.5 -1.5 -11.5 -4.5s-4.5 -6.83301 -4.5 -11.5v-156c0 -12.667 5 -23 15 -31l67 -49c2.66699 -2.66699 6 -4 10 -4
c5.33301 0 9.33301 2 12 6z" />
    <glyph glyph-name="road" unicode="&#xf018;" horiz-adv-x="576" 
d="M573 45c4.66699 -10.667 4 -20.834 -2 -30.501s-14.667 -14.5 -26 -14.5h-196l-11 98c0 4 -1.5 7.33301 -4.5 10s-6.83301 4 -11.5 4h-68c-4.66699 0 -8.5 -1.33301 -11.5 -4s-4.5 -6 -4.5 -10l-11 -98h-196c-11.333 0 -20 4.83301 -26 14.5s-6.66699 19.834 -2 30.501
l140 320c5.33301 12.667 14.333 19 27 19h98l-3 -23c0 -2.66699 0.833008 -4.83398 2.5 -6.50098s3.5 -2.5 5.5 -2.5h30c2 0 3.83301 0.833008 5.5 2.5s2.5 3.83398 2.5 6.50098l-3 23h98c12.667 0 21.667 -6.33301 27 -19zM260 313l-3.99609 -44
c-0.666992 -3.33301 0.166016 -6.33301 2.49902 -9s5.5 -4 9.5 -4h40c4 0 7.16699 1.33301 9.5 4s3.16602 5.66699 2.49902 9l-4 44c-0.666992 4.66699 -3.33398 7 -8.00098 7h-40c-4.66699 0 -7.33398 -2.33301 -8.00098 -7zM316.004 144c4.66699 0 8.5 1.83301 11.5 5.5
s4.5 7.83398 4.5 12.501l-6 48c0 4 -1.5 7.33301 -4.5 10s-6.5 4 -10.5 4h-46c-4 0 -7.5 -1.33301 -10.5 -4s-4.5 -6 -4.5 -10l-6 -48c0 -4.66699 1.5 -8.83398 4.5 -12.501s6.83301 -5.5 11.5 -5.5h56z" />
    <glyph glyph-name="download" unicode="&#xf019;" 
d="M216 448h79.998c6.66699 0 12.334 -2.33301 17.001 -7s7 -10.334 7 -17.001v-168h88c8.66699 0 14.667 -4.16699 18 -12.5s2 -15.5 -4 -21.5l-152 -152c-4 -4 -8.66699 -6 -14 -6s-10 2 -14 6l-152 152c-6 6 -7.33301 13.167 -4 21.5s9.33301 12.5 18 12.5h88v168
c0 6.66699 2.33301 12.334 7 17.001s10.334 7 17.001 7zM511.998 72v-112c0 -6.66699 -2.33301 -12.334 -7 -17.001s-10.334 -7 -17.001 -7h-464c-6.66699 0 -12.334 2.33301 -17.001 7s-7 10.334 -7 17.001v112c0 6.66699 2.33301 12.334 7 17.001s10.334 7 17.001 7h147
l49 -49c10 -10 22 -15 36 -15s26 5 36 15l49 49h147c6.66699 0 12.334 -2.33301 17.001 -7s7 -10.334 7 -17.001zM387.998 -16c0 5.33301 -2 10 -6 14s-8.66699 6 -14 6s-10 -2 -14 -6s-6 -8.66699 -6 -14s2 -10 6 -14s8.66699 -6 14 -6s10 2 14 6s6 8.66699 6 14z
M451.998 -16c0 5.33301 -2 10 -6 14s-8.66699 6 -14 6s-10 -2 -14 -6s-6 -8.66699 -6 -14s2 -10 6 -14s8.66699 -6 14 -6s10 2 14 6s6 8.66699 6 14z" />
    <glyph glyph-name="inbox" unicode="&#xf01c;" horiz-adv-x="576" 
d="M568 204c5.33301 -8 8 -17 8 -27v-129c0 -13.333 -4.66699 -24.666 -14 -33.999s-20.666 -14 -33.999 -14h-480c-13.333 0 -24.666 4.66699 -33.999 14s-14 20.666 -14 33.999v129c0 10 2.66699 19 8 27l106 159c9.33301 14 22.666 21 39.999 21h268
c17.333 0 30.666 -7 39.999 -21zM162 320l-85 -128h123l32 -64h112l32 64h123l-85 128h-252z" />
    <glyph glyph-name="redo" unicode="&#xf01e;" 
d="M500 448c3.33301 0 6.16602 -1.16602 8.49902 -3.49902s3.5 -5.16602 3.5 -8.49902v-200c0 -3.33301 -1.16699 -6.16602 -3.5 -8.49902s-5.16602 -3.5 -8.49902 -3.5h-200c-3.33301 0 -6.16602 1.16699 -8.49902 3.5s-3.5 5.16602 -3.5 8.49902v47
c0 3.33301 1.16699 6.16602 3.5 8.49902s5.16602 3.5 8.49902 3.5h1l101 -5c-16 24 -36.833 43 -62.5 57s-53.5 21 -83.5 21c-48.667 0 -90.167 -17.167 -124.5 -51.5s-51.5 -75.833 -51.5 -124.5s17.167 -90.167 51.5 -124.5s75.833 -51.5 124.5 -51.5
c44 0 82.667 14.667 116 44c2.66699 2 5.33398 3 8.00098 3c3.33301 0 6.33301 -1.33301 9 -4l34 -34c2 -2 3 -4.66699 3 -8c0 -4 -1.33301 -7 -4 -9c-46.667 -42.667 -102 -64 -166 -64c-68.667 0 -127.167 24.167 -175.5 72.5s-72.5 106.666 -72.5 174.999
s24.333 126.833 73 175.5s107 73 175 73c37.333 0 72.333 -7.66699 105 -23s60.667 -36.666 84 -63.999l-4 82v1c0 3.33301 1.16699 6.16602 3.5 8.49902s5.16602 3.5 8.49902 3.5h47z" />
    <glyph glyph-name="sync" unicode="&#xf021;" 
d="M441 435l-0.000976562 1.00098c0 3.33301 1.16699 6.16602 3.5 8.49902s5.16602 3.5 8.49902 3.5h47c8 0 12 -4 12 -12v-200c0 -3.33301 -1.16699 -6.16602 -3.5 -8.49902s-5.16602 -3.5 -8.49902 -3.5h-200c-3.33301 0 -6.16602 1.16699 -8.49902 3.5
s-3.5 5.16602 -3.5 8.49902v47c0 3.33301 1.16699 6.16602 3.5 8.49902s5.16602 3.5 8.49902 3.5l102 -5c-16 24 -36.833 43 -62.5 57s-53.5 21 -83.5 21c-41.333 0 -77.833 -12.667 -109.5 -38s-52.167 -57.666 -61.5 -96.999c-1.33301 -6 -5.33301 -9 -12 -9h-49
c-3.33301 0 -6.16602 1.16699 -8.49902 3.5s-3.5 5.16602 -3.5 8.49902v2c11.333 58 39.833 106.167 85.5 144.5s98.5 57.5 158.5 57.5c37.333 0 72.333 -7.66699 105 -23s60.667 -36.666 84 -63.999zM255.999 16.001c40.667 0 77.002 12.667 109.002 38
s52.667 57.666 62 96.999c1.33301 6 5.33301 9 12 9h49c3.33301 0 6.16602 -1.16699 8.49902 -3.5s3.5 -5.16602 3.5 -8.49902c0 -0.666992 -0.333008 -1.33398 -1 -2.00098c-10.667 -58 -38.834 -106.167 -84.501 -144.5s-98.5 -57.5 -158.5 -57.5
c-37.333 0 -72.333 7.66699 -105 23s-60.667 36.666 -84 63.999l4 -82v-1c0 -3.33301 -1.16699 -6.16602 -3.5 -8.49902s-5.16602 -3.5 -8.49902 -3.5h-47c-8 0 -12 4 -12 12v200c0 3.33301 1.16699 6.16602 3.5 8.49902s5.16602 3.5 8.49902 3.5h200
c3.33301 0 6.16602 -1.16699 8.49902 -3.5s3.5 -5.16602 3.5 -8.49902v-47c0 -3.33301 -1.16699 -6.16602 -3.5 -8.49902s-5.16602 -3.5 -8.49902 -3.5l-102 5c16 -24 36.833 -43 62.5 -57s53.5 -21 83.5 -21z" />
    <glyph glyph-name="list-alt" unicode="&#xf022;" 
d="M464 -32h-416c-13.333 0 -24.666 4.66699 -33.999 14s-14 20.666 -14 33.999v352c0 13.333 4.66699 24.666 14 33.999s20.666 14 33.999 14h416c13.333 0 24.666 -4.66699 33.999 -14s14 -20.666 14 -33.999v-352c0 -13.333 -4.66699 -24.666 -14 -33.999
s-20.666 -14 -33.999 -14zM128 328c-11.333 0 -20.833 -3.83301 -28.5 -11.5s-11.5 -17.167 -11.5 -28.5s3.83301 -20.833 11.5 -28.5s17.167 -11.5 28.5 -11.5s20.833 3.83301 28.5 11.5s11.5 17.167 11.5 28.5s-3.83301 20.833 -11.5 28.5s-17.167 11.5 -28.5 11.5z
M128 232c-11.333 0 -20.833 -3.83301 -28.5 -11.5s-11.5 -17.167 -11.5 -28.5s3.83301 -20.833 11.5 -28.5s17.167 -11.5 28.5 -11.5s20.833 3.83301 28.5 11.5s11.5 17.167 11.5 28.5s-3.83301 20.833 -11.5 28.5s-17.167 11.5 -28.5 11.5zM128 136
c-11.333 0 -20.833 -3.83301 -28.5 -11.5s-11.5 -17.167 -11.5 -28.5s3.83301 -20.833 11.5 -28.5s17.167 -11.5 28.5 -11.5s20.833 3.83301 28.5 11.5s11.5 17.167 11.5 28.5s-3.83301 20.833 -11.5 28.5s-17.167 11.5 -28.5 11.5zM416 272v32c0 8 -4 12 -12 12h-200
c-8 0 -12 -4 -12 -12v-32c0 -8 4 -12 12 -12h200c8 0 12 4 12 12zM416 176v32c0 8 -4 12 -12 12h-200c-8 0 -12 -4 -12 -12v-32c0 -8 4 -12 12 -12h200c8 0 12 4 12 12zM416 80v32c0 8 -4 12 -12 12h-200c-8 0 -12 -4 -12 -12v-32c0 -8 4 -12 12 -12h200c8 0 12 4 12 12z
" />
    <glyph glyph-name="lock" unicode="&#xf023;" horiz-adv-x="448" 
d="M400 224c13.333 0 24.666 -4.66699 33.999 -14s14 -20.666 14 -33.999v-192c0 -13.333 -4.66699 -24.666 -14 -33.999s-20.666 -14 -33.999 -14h-352c-13.333 0 -24.666 4.66699 -33.999 14s-14 20.666 -14 33.999v192c0 13.333 4.66699 24.666 14 33.999
s20.666 14 33.999 14h24v72c0 42 14.833 77.833 44.5 107.5s65.5 44.5 107.5 44.5s77.833 -14.833 107.5 -44.5s44.5 -65.5 44.5 -107.5v-72h24zM296 224v72c0 20 -7 37 -21 51s-31 21 -51 21s-37 -7 -51 -21s-21 -31 -21 -51v-72h144z" />
    <glyph glyph-name="flag" unicode="&#xf024;" 
d="M350 349c32 0 71.001 10.6689 117.001 32.002c10 4.66699 20 4 30 -2s15 -15 15 -27v-243c0 -11.333 -4.66699 -20 -14 -26c-39.333 -27.333 -80 -41 -122 -41c-24 0 -53.333 5.83301 -88 17.5s-60.667 17.5 -78 17.5c-41.333 0 -79.333 -7.66699 -114 -23v-94
c0 -6.66699 -2.33301 -12.334 -7 -17.001s-10.334 -7 -17.001 -7h-16c-6.66699 0 -12.334 2.33301 -17.001 7s-7 10.334 -7 17.001v386c-16 11.333 -24 26.666 -24 45.999c0 16 5.66699 29.5 17 40.5s25 16.167 41 15.5c14.667 -0.666992 27.167 -6 37.5 -16
s15.833 -22 16.5 -36v-4c0 -6.66699 -1.33301 -13.334 -4 -20.001c22 8 44.833 12 68.5 12s52.834 -5.83301 87.501 -17.5s60.667 -17.5 78 -17.5z" />
    <glyph glyph-name="headphones" unicode="&#xf025;" 
d="M256 416c70.667 0 131.002 -25 181.002 -75s75 -110.333 75 -181v-48c0 -13.333 -6 -23 -18 -29l-14 -7c-1.33301 -30 -12.833 -55.5 -34.5 -76.5s-47.5 -31.5 -77.5 -31.5h-24c-6.66699 0 -12.334 2.33301 -17.001 7s-7 10.334 -7 17.001v176
c0 6.66699 2.33301 12.334 7 17.001s10.334 7 17.001 7h24c31.333 0 58 -11.333 80 -34v2c0 52.667 -18.833 97.834 -56.5 135.501s-82.834 56.5 -135.501 56.5s-97.834 -18.833 -135.501 -56.5s-56.5 -82.834 -56.5 -135.501v-2c22 22.667 48.667 34 80 34h24
c6.66699 0 12.334 -2.33301 17.001 -7s7 -10.334 7 -17.001v-176c0 -6.66699 -2.33301 -12.334 -7 -17.001s-10.334 -7 -17.001 -7h-24c-30 0 -55.833 10.5 -77.5 31.5s-33.167 46.5 -34.5 76.5l-14 7c-12 6 -18 15.667 -18 29v48c0 70.667 25 131 75 181s110.333 75 181 75
z" />
    <glyph glyph-name="volume-off" unicode="&#xf026;" horiz-adv-x="256" 
d="M215 377c7.33301 7.33301 16 8.99805 26 4.99805s15 -11.333 15 -22v-336c0 -10.667 -5 -18 -15 -22s-18.667 -2.33301 -26 5l-89 89h-102c-6.66699 0 -12.334 2.33301 -17.001 7s-7 10.334 -7 17.001v144c0 6.66699 2.33301 12.334 7 17.001s10.334 7 17.001 7h102z" />
    <glyph glyph-name="volume-down" unicode="&#xf027;" horiz-adv-x="384" 
d="M215 376c7.33301 7.33301 16 8.99805 26 4.99805s15 -11.333 15 -22v-336c0 -10.667 -5 -18 -15 -22s-18.667 -2.33301 -26 5l-89 89h-102c-6.66699 0 -12.334 2.33301 -17.001 7s-7 10.334 -7 17.001v144c0 6.66699 2.33301 12.334 7 17.001s10.334 7 17.001 7h102z
M338 267.998c14 -8 25.167 -18.8311 33.5 -32.498s12.5 -28.5 12.5 -44.5s-4.16699 -30.833 -12.5 -44.5s-19.5 -24.5 -33.5 -32.5c-5.33301 -3.33301 -11.333 -4 -18 -2s-11.5 5.83301 -14.5 11.5s-3.66699 11.667 -2 18s5.5 11.166 11.5 14.499c14 8 21 19.667 21 35
s-7 27 -21 35c-6 3.33301 -9.83301 8.16602 -11.5 14.499s-1 12.333 2 18s7.83301 9.5 14.5 11.5s12.667 1.33301 18 -2z" />
    <glyph glyph-name="volume-up" unicode="&#xf028;" horiz-adv-x="576" 
d="M215 377c7.33301 7.33301 16 8.99805 26 4.99805s15 -11.333 15 -22v-336c0 -10.667 -5 -18 -15 -22s-18.667 -2.33301 -26 5l-89 89h-102c-6.66699 0 -12.334 2.33301 -17.001 7s-7 10.334 -7 17.001v144c0 6.66699 2.33301 12.334 7 17.001s10.334 7 17.001 7h102z
M448 427.998c40 -26 71.333 -60 94 -102s34 -86.667 34 -134s-11.333 -92 -34 -134s-54 -76 -94 -102c-5.33301 -4 -11.333 -5.16699 -18 -3.5s-11.834 5.16699 -15.501 10.5s-4.83398 11.333 -3.50098 18s5 11.667 11 15c32.667 22 58.5 50.333 77.5 85
s28.5 71.667 28.5 111s-9.5 76.333 -28.5 111s-44.833 63 -77.5 85c-6 3.33301 -9.66699 8.33301 -11 15s-0.166016 12.667 3.50098 18s8.83398 8.83301 15.501 10.5s12.667 0.5 18 -3.5zM480 191.998c0 -32 -7.50098 -61.8301 -22.501 -89.4971
s-36.167 -49.834 -63.5 -66.501c-6 -4 -12.167 -5.16699 -18.5 -3.5s-11.166 5.16699 -14.499 10.5c-3.33301 6 -4.33301 12.167 -3 18.5s5 11.5 11 15.5c19.333 12.667 34.666 29.167 45.999 49.5s17 42.166 17 65.499s-5.66699 45.166 -17 65.499
s-26.666 36.833 -45.999 49.5c-6 4 -9.66699 9.16699 -11 15.5s-0.333008 12.333 3 18s8.33301 9.33398 15 11.001s12.667 0.5 18 -3.5c27.333 -16.667 48.5 -38.834 63.5 -66.501s22.5 -57.5 22.5 -89.5zM337.999 269.001c14 -8 25.167 -18.8311 33.5 -32.498
s12.5 -28.5 12.5 -44.5s-4.16699 -30.833 -12.5 -44.5s-19.5 -24.5 -33.5 -32.5c-5.33301 -3.33301 -11.333 -4 -18 -2s-11.5 5.83301 -14.5 11.5s-3.66699 11.667 -2 18s5.5 11.166 11.5 14.499c14 8 21 19.667 21 35s-7 27 -21 35
c-6 3.33301 -9.83301 8.16602 -11.5 14.499s-1 12.333 2 18s7.83301 9.5 14.5 11.5s12.667 1.33301 18 -2z" />
    <glyph glyph-name="qrcode" unicode="&#xf029;" horiz-adv-x="448" 
d="M0 224v192h192v-192h-192zM64 352v-64h64v64h-64zM256 416h192v-192h-192v192zM384 288v64h-64v-64h64zM0 -32v192h192v-192h-192zM64 96v-64h64v64h-64zM416 160h32v-128h-96v32h-32v-96h-64v192h96v-32h64v32zM416 0h32v-32h-32v32zM352 0h32v-32h-32v32z" />
    <glyph glyph-name="barcode" unicode="&#xf02a;" 
d="M0 0v384h18v-384h-18zM27 0v384h9v-384h-9zM54 0v384h9v-384h-9zM99 0v384h9v-384h-9zM135 0v384h18v-384h-18zM180 0v384h9v-384h-9zM198 0v384h9v-384h-9zM216 0v384h9v-384h-9zM251 0v384h18v-384h-18zM296 0v384h18v-384h-18zM332 0v384h18v-384h-18zM368 0v384h18
v-384h-18zM395 0v384h18v-384h-18zM440 0v384h27v-384h-27zM476 0v384h9v-384h-9zM494 0v384h18v-384h-18z" />
    <glyph glyph-name="tag" unicode="&#xf02b;" 
d="M0 196v204c0 13.333 4.66699 24.666 14 33.999s20.666 14 33.999 14h204c13.333 0 24.666 -4.66699 33.999 -14l212 -212c9.33301 -9.33301 14 -20.666 14 -33.999s-4.66699 -24.666 -14 -33.999l-204 -204c-9.33301 -9.33301 -20.666 -14 -33.999 -14
s-24.666 4.66699 -33.999 14l-212 212c-9.33301 9.33301 -14 20.666 -14 33.999zM112 384c-13.333 0 -24.666 -4.66699 -33.999 -14s-14 -20.666 -14 -33.999s4.66699 -24.666 14 -33.999s20.666 -14 33.999 -14s24.666 4.66699 33.999 14s14 20.666 14 33.999
s-4.66699 24.666 -14 33.999s-20.666 14 -33.999 14z" />
    <glyph glyph-name="tags" unicode="&#xf02c;" horiz-adv-x="640" 
d="M498 222c9.33301 -9.33301 14 -20.666 14 -33.999s-4.66699 -24.666 -14 -33.999l-204 -204c-9.33301 -9.33301 -20.666 -14 -33.999 -14s-24.666 4.66699 -33.999 14l-212 212c-9.33301 9.33301 -14 20.666 -14 33.999v204c0 13.333 4.66699 24.666 14 33.999
s20.666 14 33.999 14h204c13.333 0 24.666 -4.66699 33.999 -14zM112 288c13.333 0 24.666 4.66699 33.999 14s14 20.666 14 33.999s-4.66699 24.666 -14 33.999s-20.666 14 -33.999 14s-24.666 -4.66699 -33.999 -14s-14 -20.666 -14 -33.999s4.66699 -24.666 14 -33.999
s20.666 -14 33.999 -14zM626 154l-204.001 -204.002c-9.33301 -9.33301 -20.666 -14 -33.999 -14s-24.666 4.66699 -33.999 14l174 174c17.333 18 26 39.333 26 64s-8.66699 46 -26 64l-197 196h49c13.333 0 24.666 -4.66699 33.999 -14l212 -212
c9.33301 -9.33301 14 -20.666 14 -33.999s-4.66699 -24.666 -14 -33.999z" />
    <glyph glyph-name="book" unicode="&#xf02d;" horiz-adv-x="448" 
d="M448 88c0 -8 -3 -14.3359 -9 -19.0029c-2 -7.33301 -3 -19.666 -3 -36.999s1 -29.666 3 -36.999c6 -5.33301 9 -11.666 9 -18.999v-16c0 -6.66699 -2.33301 -12.334 -7 -17.001s-10.334 -7 -17.001 -7h-328c-26.667 0 -49.334 9.33301 -68.001 28s-28 41.334 -28 68.001
v320c0 26.667 9.33301 49.334 28 68.001s41.334 28 68.001 28h328c6.66699 0 12.334 -2.33301 17.001 -7s7 -10.334 7 -17.001v-336zM128 313.997v-20c0 -4 2 -6 6 -6h212c4 0 6 2 6 6v20c0 4 -2 6 -6 6h-212c-4 0 -6 -2 -6 -6zM128 249.997v-20c0 -4 2 -6 6 -6h212
c4 0 6 2 6 6v20c0 4 -2 6 -6 6h-212c-4 0 -6 -2 -6 -6zM381 -0.00292969c-2 21.333 -2 42.667 0 64h-285c-8.66699 0 -16.167 -3.16699 -22.5 -9.5s-9.5 -13.833 -9.5 -22.5s3.16699 -16.167 9.5 -22.5s13.833 -9.5 22.5 -9.5h285z" />
    <glyph glyph-name="bookmark" unicode="&#xf02e;" horiz-adv-x="384" 
d="M0 -64l0.00195312 464c0 13.333 4.66699 24.666 14 33.999s20.666 14 33.999 14h288c13.333 0 24.666 -4.66699 33.999 -14s14 -20.666 14 -33.999v-464l-192 112z" />
    <glyph glyph-name="print" unicode="&#xf02f;" 
d="M448 256c18 0 33.167 -6.16699 45.5 -18.5s18.5 -27.5 18.5 -45.5v-112c0 -4.66699 -1.5 -8.5 -4.5 -11.5s-6.83301 -4.5 -11.5 -4.5h-48v-96c0 -8.66699 -3.16699 -16.167 -9.5 -22.5s-13.833 -9.5 -22.5 -9.5h-320c-8.66699 0 -16.167 3.16699 -22.5 9.5
s-9.5 13.833 -9.5 22.5v96h-48c-4.66699 0 -8.5 1.5 -11.5 4.5s-4.5 6.83301 -4.5 11.5v112c0 18 6.16699 33.167 18.5 45.5s27.5 18.5 45.5 18.5v160c0 8.66699 3.16699 16.167 9.5 22.5s13.833 9.5 22.5 9.5h275c8.66699 0 16 -3 22 -9l46 -46c6 -6 9 -13.333 9 -22v-115z
M384 0v96h-256v-96h256zM384 224v96h-48c-4.66699 0 -8.5 1.5 -11.5 4.5s-4.5 6.83301 -4.5 11.5v48h-192v-160h256zM432 152c6.66699 0 12.334 2.33301 17.001 7s7 10.334 7 17.001s-2.33301 12.334 -7 17.001s-10.334 7 -17.001 7s-12.334 -2.33301 -17.001 -7
s-7 -10.334 -7 -17.001s2.33301 -12.334 7 -17.001s10.334 -7 17.001 -7z" />
    <glyph glyph-name="camera" unicode="&#xf030;" 
d="M512 304v-288c0 -13.333 -4.66699 -24.666 -14 -33.999s-20.666 -14 -33.999 -14h-416c-13.333 0 -24.666 4.66699 -33.999 14s-14 20.666 -14 33.999v288c0 13.333 4.66699 24.666 14 33.999s20.666 14 33.999 14h88l12 33c4 9.33301 10 16.833 18 22.5s17 8.5 27 8.5
h126c10 0 19 -2.83301 27 -8.5s14 -13.167 18 -22.5l12 -33h88c13.333 0 24.666 -4.66699 33.999 -14s14 -20.666 14 -33.999zM376 160c0 33.333 -11.667 61.666 -35 84.999s-51.666 35 -84.999 35s-61.666 -11.667 -84.999 -35s-35 -51.666 -35 -84.999
s11.667 -61.666 35 -84.999s51.666 -35 84.999 -35s61.666 11.667 84.999 35s35 51.666 35 84.999zM344 160c0 -24 -8.66699 -44.667 -26 -62s-38 -26 -62 -26s-44.667 8.66699 -62 26s-26 38 -26 62s8.66699 44.667 26 62s38 26 62 26s44.667 -8.66699 62 -26
s26 -38 26 -62z" />
    <glyph glyph-name="font" unicode="&#xf031;" horiz-adv-x="448" 
d="M432 32c4.66699 0 8.5 -1.5 11.5 -4.5s4.5 -6.83301 4.5 -11.5v-32c0 -4.66699 -1.5 -8.5 -4.5 -11.5s-6.83301 -4.5 -11.5 -4.5h-128c-4.66699 0 -8.5 1.5 -11.5 4.5s-4.5 6.83301 -4.5 11.5v32c0 4.66699 1.5 8.5 4.5 11.5s6.83301 4.5 11.5 4.5h20l-24 64h-152
l-24 -64h20c4.66699 0 8.5 -1.5 11.5 -4.5s4.5 -6.83301 4.5 -11.5v-32c0 -4.66699 -1.5 -8.5 -4.5 -11.5s-6.83301 -4.5 -11.5 -4.5h-128c-4.66699 0 -8.5 1.5 -11.5 4.5s-4.5 6.83301 -4.5 11.5v32c0 4.66699 1.5 8.5 4.5 11.5s6.83301 4.5 11.5 4.5h23l131 362
c5.33301 14.667 15.333 22 30 22h48c14.667 0 24.667 -7.33301 30 -22l131 -362h23zM177 176h94l-47 129z" />
    <glyph glyph-name="bold" unicode="&#xf032;" horiz-adv-x="384" 
d="M333 210c18 -14 31.667 -31.5 41 -52.5s12.666 -43.5 9.99902 -67.5c-3.33301 -34.667 -18.666 -63.667 -45.999 -87s-59 -35 -95 -35h-209c-4.66699 0 -8.5 1.5 -11.5 4.5s-4.5 6.83301 -4.5 11.5v48c0 4.66699 1.5 8.5 4.5 11.5s6.83301 4.5 11.5 4.5h32v288h-32
c-4.66699 0 -8.5 1.5 -11.5 4.5s-4.5 6.83301 -4.5 11.5v48c0 4.66699 1.5 8.5 4.5 11.5s6.83301 4.5 11.5 4.5h199c38 0 69.667 -14 95 -42s36 -61 32 -99c-2 -24 -11 -45.667 -27 -65zM146 336v-95.998h87c13.333 0 24.666 4.66699 33.999 14s14 20.666 14 33.999
s-4.66699 24.666 -14 33.999s-20.666 14 -33.999 14h-87zM233 48.002c16 0 29.333 5.5 40 16.5s16 24.167 16 39.5s-5.33301 28.5 -16 39.5s-24 16.5 -40 16.5h-87v-112h87z" />
    <glyph glyph-name="italic" unicode="&#xf033;" horiz-adv-x="320" 
d="M320 400v-32c0 -4.66699 -1.5 -8.5 -4.5 -11.5s-6.83301 -4.5 -11.5 -4.5h-63l-80 -320h47c4.66699 0 8.5 -1.5 11.5 -4.5s4.5 -6.83301 4.5 -11.5v-32c0 -4.66699 -1.5 -8.5 -4.5 -11.5s-6.83301 -4.5 -11.5 -4.5h-192c-4.66699 0 -8.5 1.5 -11.5 4.5
s-4.5 6.83301 -4.5 11.5v32c0 4.66699 1.5 8.5 4.5 11.5s6.83301 4.5 11.5 4.5h63l80 320h-47c-4.66699 0 -8.5 1.5 -11.5 4.5s-4.5 6.83301 -4.5 11.5v32c0 4.66699 1.5 8.5 4.5 11.5s6.83301 4.5 11.5 4.5h192c4.66699 0 8.5 -1.5 11.5 -4.5s4.5 -6.83301 4.5 -11.5z" />
    <glyph glyph-name="text-height" unicode="&#xf034;" horiz-adv-x="576" 
d="M304 416c4.66699 0 8.5 -1.5 11.5 -4.5s4.5 -6.83301 4.5 -11.5v-96c0 -4.66699 -1.5 -8.5 -4.5 -11.5s-6.83301 -4.5 -11.5 -4.5h-32c-4.66699 0 -8.5 1.5 -11.5 4.5s-4.5 6.83301 -4.5 11.5v32h-56v-304h40c4.66699 0 8.5 -1.5 11.5 -4.5s4.5 -6.83301 4.5 -11.5v-32
c0 -4.66699 -1.5 -8.5 -4.5 -11.5s-6.83301 -4.5 -11.5 -4.5h-160c-4.66699 0 -8.5 1.5 -11.5 4.5s-4.5 6.83301 -4.5 11.5v32c0 4.66699 1.5 8.5 4.5 11.5s6.83301 4.5 11.5 4.5h40v304h-56v-32c0 -4.66699 -1.5 -8.5 -4.5 -11.5s-6.83301 -4.5 -11.5 -4.5h-32
c-4.66699 0 -8.5 1.5 -11.5 4.5s-4.5 6.83301 -4.5 11.5v96c0 4.66699 1.5 8.5 4.5 11.5s6.83301 4.5 11.5 4.5h288zM560 80c7.33301 0 12.333 -3.33301 15 -10s1.33398 -12.334 -3.99902 -17.001l-80 -80c-2.66699 -3.33301 -6.33398 -5 -11.001 -5
s-8.33398 1.66699 -11.001 5l-80 80c-5.33301 4.66699 -6.66602 10.334 -3.99902 17.001s7.66699 10 15 10h48v224h-48c-7.33301 0 -12.333 3.33301 -15 10s-1.33398 12.334 3.99902 17.001l80 80c2.66699 3.33301 6.33398 5 11.001 5s8.33398 -1.66699 11.001 -5l80 -80
c5.33301 -4.66699 6.66602 -10.334 3.99902 -17.001s-7.66699 -10 -15 -10h-48v-224h48z" />
    <glyph glyph-name="text-width" unicode="&#xf035;" horiz-adv-x="448" 
d="M432 416c4.66699 0 8.5 -1.5 11.5 -4.5s4.5 -6.83301 4.5 -11.5v-80c0 -4.66699 -1.5 -8.5 -4.5 -11.5s-6.83301 -4.5 -11.5 -4.5h-32c-4.66699 0 -8.5 1.5 -11.5 4.5s-4.5 6.83301 -4.5 11.5v16h-120v-112h24c4.66699 0 8.5 -1.5 11.5 -4.5s4.5 -6.83301 4.5 -11.5v-32
c0 -4.66699 -1.5 -8.5 -4.5 -11.5s-6.83301 -4.5 -11.5 -4.5h-128c-4.66699 0 -8.5 1.5 -11.5 4.5s-4.5 6.83301 -4.5 11.5v32c0 4.66699 1.5 8.5 4.5 11.5s6.83301 4.5 11.5 4.5h24v112h-120v-16c0 -4.66699 -1.5 -8.5 -4.5 -11.5s-6.83301 -4.5 -11.5 -4.5h-32
c-4.66699 0 -8.5 1.5 -11.5 4.5s-4.5 6.83301 -4.5 11.5v80c0 4.66699 1.5 8.5 4.5 11.5s6.83301 4.5 11.5 4.5h416zM363 155l80 -80c3.33301 -2.66699 5 -6.33398 5 -11.001s-1.66699 -8.33398 -5 -11.001l-80 -80c-4.66699 -5.33301 -10.334 -6.66602 -17.001 -3.99902
s-10 7.66699 -10 15v48h-224v-48c0 -7.33301 -3.33301 -12.333 -10 -15s-12.334 -1.33398 -17.001 3.99902l-80 80c-3.33301 2.66699 -5 6.33398 -5 11.001s1.66699 8.33398 5 11.001l80 80c4.66699 5.33301 10.334 6.66602 17.001 3.99902s10 -7.66699 10 -15v-48h224v48
c0 7.33301 3.33301 12.333 10 15s12.334 1.33398 17.001 -3.99902z" />
    <glyph glyph-name="align-left" unicode="&#xf036;" horiz-adv-x="448" 
d="M13 96c-3.33301 0 -6.33301 1.33301 -9 4s-4 5.66699 -4 9v38c-0 3.33301 1.33301 6.33301 4 9s5.66699 4 9 4h262c3.33301 0 6.33301 -1.33301 9 -4s4 -5.66699 4 -9v-38c0 -3.33301 -1.33301 -6.33301 -4 -9s-5.66699 -4 -9 -4h-262zM13 352
c-3.33301 0 -6.33301 1.33301 -9 4s-4 5.66699 -4 9v38c-0 3.33301 1.33301 6.33301 4 9s5.66699 4 9 4h262c3.33301 0 6.33301 -1.33301 9 -4s4 -5.66699 4 -9v-38c0 -3.33301 -1.33301 -6.33301 -4 -9s-5.66699 -4 -9 -4h-262zM432 288c4.66699 0 8.5 -1.5 11.5 -4.5
s4.5 -6.83301 4.5 -11.5v-32c0 -4.66699 -1.5 -8.5 -4.5 -11.5s-6.83301 -4.5 -11.5 -4.5h-416c-4.66699 0 -8.5 1.5 -11.5 4.5s-4.5 6.83301 -4.5 11.5v32c0 4.66699 1.5 8.5 4.5 11.5s6.83301 4.5 11.5 4.5h416zM432 32c4.66699 0 8.5 -1.5 11.5 -4.5
s4.5 -6.83301 4.5 -11.5v-32c0 -4.66699 -1.5 -8.5 -4.5 -11.5s-6.83301 -4.5 -11.5 -4.5h-416c-4.66699 0 -8.5 1.5 -11.5 4.5s-4.5 6.83301 -4.5 11.5v32c0 4.66699 1.5 8.5 4.5 11.5s6.83301 4.5 11.5 4.5h416z" />
    <glyph glyph-name="align-center" unicode="&#xf037;" horiz-adv-x="448" 
d="M432 288c4.66699 0 8.5 -1.5 11.5 -4.5s4.5 -6.83301 4.5 -11.5v-32c0 -4.66699 -1.5 -8.5 -4.5 -11.5s-6.83301 -4.5 -11.5 -4.5h-416c-4.66699 0 -8.5 1.5 -11.5 4.5s-4.5 6.83301 -4.5 11.5v32c0 4.66699 1.5 8.5 4.5 11.5s6.83301 4.5 11.5 4.5h416zM432 32
c4.66699 0 8.5 -1.5 11.5 -4.5s4.5 -6.83301 4.5 -11.5v-32c0 -4.66699 -1.5 -8.5 -4.5 -11.5s-6.83301 -4.5 -11.5 -4.5h-416c-4.66699 0 -8.5 1.5 -11.5 4.5s-4.5 6.83301 -4.5 11.5v32c0 4.66699 1.5 8.5 4.5 11.5s6.83301 4.5 11.5 4.5h416zM108 352
c-3.33301 0 -6.16602 1.16699 -8.49902 3.5s-3.5 5.16602 -3.5 8.49902v40c0 3.33301 1.16699 6.16602 3.5 8.49902s5.16602 3.5 8.49902 3.5h232c3.33301 0 6.16602 -1.16699 8.49902 -3.5s3.5 -5.16602 3.5 -8.49902v-40c0 -3.33301 -1.16699 -6.16602 -3.5 -8.49902
s-5.16602 -3.5 -8.49902 -3.5h-232zM340 96h-232c-3.33301 0 -6.16602 1.16699 -8.49902 3.5s-3.5 5.16602 -3.5 8.49902v40c0 3.33301 1.16699 6.16602 3.5 8.49902s5.16602 3.5 8.49902 3.5h232c3.33301 0 6.16602 -1.16699 8.49902 -3.5s3.5 -5.16602 3.5 -8.49902v-40
c0 -3.33301 -1.16699 -6.16602 -3.5 -8.49902s-5.16602 -3.5 -8.49902 -3.5z" />
    <glyph glyph-name="align-right" unicode="&#xf038;" horiz-adv-x="448" 
d="M16 224c-4.66699 0 -8.5 1.5 -11.5 4.5s-4.5 6.83301 -4.5 11.5v32c0 4.66699 1.5 8.5 4.5 11.5s6.83301 4.5 11.5 4.5h416c4.66699 0 8.5 -1.5 11.5 -4.5s4.5 -6.83301 4.5 -11.5v-32c0 -4.66699 -1.5 -8.5 -4.5 -11.5s-6.83301 -4.5 -11.5 -4.5h-416zM432 32
c4.66699 0 8.5 -1.5 11.5 -4.5s4.5 -6.83301 4.5 -11.5v-32c0 -4.66699 -1.5 -8.5 -4.5 -11.5s-6.83301 -4.5 -11.5 -4.5h-416c-4.66699 0 -8.5 1.5 -11.5 4.5s-4.5 6.83301 -4.5 11.5v32c0 4.66699 1.5 8.5 4.5 11.5s6.83301 4.5 11.5 4.5h416zM435 416
c3.33301 0 6.33301 -1.33301 9 -4s4 -5.66699 4 -9v-38c0 -3.33301 -1.33301 -6.33301 -4 -9s-5.66699 -4 -9 -4h-262c-3.33301 0 -6.33301 1.33301 -9 4s-4 5.66699 -4 9v38c0 3.33301 1.33301 6.33301 4 9s5.66699 4 9 4h262zM435 160c3.33301 0 6.33301 -1.33301 9 -4
s4 -5.66699 4 -9v-38c0 -3.33301 -1.33301 -6.33301 -4 -9s-5.66699 -4 -9 -4h-262c-3.33301 0 -6.33301 1.33301 -9 4s-4 5.66699 -4 9v38c0 3.33301 1.33301 6.33301 4 9s5.66699 4 9 4h262z" />
    <glyph glyph-name="align-justify" unicode="&#xf039;" horiz-adv-x="448" 
d="M432 32c4.66699 0 8.5 -1.5 11.5 -4.5s4.5 -6.83301 4.5 -11.5v-32c0 -4.66699 -1.5 -8.5 -4.5 -11.5s-6.83301 -4.5 -11.5 -4.5h-416c-4.66699 0 -8.5 1.5 -11.5 4.5s-4.5 6.83301 -4.5 11.5v32c0 4.66699 1.5 8.5 4.5 11.5s6.83301 4.5 11.5 4.5h416zM432 160
c4.66699 0 8.5 -1.5 11.5 -4.5s4.5 -6.83301 4.5 -11.5v-32c0 -4.66699 -1.5 -8.5 -4.5 -11.5s-6.83301 -4.5 -11.5 -4.5h-416c-4.66699 0 -8.5 1.5 -11.5 4.5s-4.5 6.83301 -4.5 11.5v32c0 4.66699 1.5 8.5 4.5 11.5s6.83301 4.5 11.5 4.5h416zM432 288
c4.66699 0 8.5 -1.5 11.5 -4.5s4.5 -6.83301 4.5 -11.5v-32c0 -4.66699 -1.5 -8.5 -4.5 -11.5s-6.83301 -4.5 -11.5 -4.5h-416c-4.66699 0 -8.5 1.5 -11.5 4.5s-4.5 6.83301 -4.5 11.5v32c0 4.66699 1.5 8.5 4.5 11.5s6.83301 4.5 11.5 4.5h416zM432 416
c4.66699 0 8.5 -1.5 11.5 -4.5s4.5 -6.83301 4.5 -11.5v-32c0 -4.66699 -1.5 -8.5 -4.5 -11.5s-6.83301 -4.5 -11.5 -4.5h-416c-4.66699 0 -8.5 1.5 -11.5 4.5s-4.5 6.83301 -4.5 11.5v32c0 4.66699 1.5 8.5 4.5 11.5s6.83301 4.5 11.5 4.5h416z" />
    </font>
</defs>
</svg>
